<svg xmlns="http://www.w3.org/2000/svg" width="211.128" height="104.931" viewBox="0 0 211.128 104.931">
  <g id="names" transform="translate(-30.73 -223.321)">
    <g id="Group_2" data-name="Group 2">
      <g id="Group_1" data-name="Group 1">
        <path id="Path_1" data-name="Path 1" d="M92.13,77.061a28.461,28.461,0,0,1-1.936,10.422,21.214,21.214,0,0,1-6.586,8.777,34.911,34.911,0,0,1-12.388,6.063A69.688,69.688,0,0,1,51.945,104.6H0v-.748H12.74a.357.357,0,0,0,.359-.351V1.513a.364.364,0,0,0-.359-.359H0V.407H44.648A85.558,85.558,0,0,1,59.833,1.715a43.351,43.351,0,0,1,12.687,4.2,23.662,23.662,0,0,1,8.672,7.626,20.2,20.2,0,0,1,3.2,11.573,20.97,20.97,0,0,1-1.787,9,22.016,22.016,0,0,1-4.538,6.474,24.679,24.679,0,0,1-6,4.351,38.321,38.321,0,0,1-6.213,2.609,34.855,34.855,0,0,1-5.174,1.263c-1.458.225-2.392.366-2.789.419.4,0,1.51.082,3.349.254a46.06,46.06,0,0,1,6.549,1.189,54.371,54.371,0,0,1,8.074,2.751,30.667,30.667,0,0,1,7.887,4.912,25.362,25.362,0,0,1,5.988,7.671,23.7,23.7,0,0,1,2.385,11.05M62.359,25.116A35.808,35.808,0,0,0,61.32,15.89a23.742,23.742,0,0,0-2.714-6.512,16.667,16.667,0,0,0-3.8-4.284A17.407,17.407,0,0,0,50.42,2.6a20.441,20.441,0,0,0-4.434-1.151,29.171,29.171,0,0,0-3.865-.3H38.458a.364.364,0,0,0-.359.359V48.352a.357.357,0,0,0,.359.351H44.05a27.775,27.775,0,0,0,6.96-.852,12.4,12.4,0,0,0,5.847-3.424,17.889,17.889,0,0,0,4.015-7.185,40.39,40.39,0,0,0,1.488-12.127m5.211,52.992a54.411,54.411,0,0,0-1.637-14.78,20.277,20.277,0,0,0-4.687-8.71,15.152,15.152,0,0,0-7.4-4.119,42.177,42.177,0,0,0-9.794-1.047H38.458a.359.359,0,0,0-.359.359V103.5a.357.357,0,0,0,.359.351h8.725A30.242,30.242,0,0,0,54.136,103a14.842,14.842,0,0,0,6.587-3.536,19.51,19.51,0,0,0,4.912-7.775q1.94-5.1,1.936-13.577" transform="translate(30.73 222.914)" fill="#59595b"/>
        <path id="Path_13" data-name="Path 13" d="M252.38,104.6h-51.2v-.747h12.74a.357.357,0,0,0,.359-.351V7.741a.36.36,0,0,0-.7-.112L184.07,105.082a.361.361,0,0,1-.68.03L147.7,12.324a.361.361,0,0,0-.7.135V103.5a.357.357,0,0,0,.359.351h12.3v.747H133.015v-.747h12.739a.357.357,0,0,0,.359-.351V1.513a.364.364,0,0,0-.359-.359H132.715V.407h37.71a.353.353,0,0,1,.329.239l24.32,62.95a.361.361,0,0,0,.68-.03L214.8.668a.359.359,0,0,1,.344-.262H252.38v.747h-12.74a.364.364,0,0,0-.359.359V103.5a.357.357,0,0,0,.359.351h12.74Z" transform="translate(-10.523 222.914)" fill="#59595b"/>
      </g>
    </g>
  </g>
</svg>
