<?xml version="1.0" encoding="utf-8"?>
<!-- Generator: Adobe Illustrator 24.0.1, SVG Export Plug-In . SVG Version: 6.00 Build 0)  -->
<svg version="1.0" xmlns="http://www.w3.org/2000/svg" xmlns:xlink="http://www.w3.org/1999/xlink" x="0px" y="0px"
	 viewBox="0 0 259.0058289 43.2771912" style="enable-background:new 0 0 259.0058289 43.2771912;" xml:space="preserve">
<style type="text/css">
	.st0{fill:#58595B;}
	.st1{fill:#D3D1CC;}
	.st2{fill:#59595B;}
</style>
<g id="names">
	<g>
		<g>
			<path class="st2" d="M28.0813904,23.7710571c0,1.1051731-0.1959724,2.1648674-0.59021,3.1766453
				c-0.3941689,1.0117779-1.0618496,1.905056-2.0075626,2.6752434c-0.945713,0.7725506-2.2036037,1.3877964-3.7759666,1.8481007
				c-1.5723629,0.4603024-3.5320797,0.6927834-5.8746986,0.6927834H0v-0.22789h3.8830624
				c0.0592504,0,0.1093907-0.0478458,0.1093907-0.1070957V0.7439691c0-0.0592505-0.0501404-0.1093909-0.1093907-0.1093909H0
				V0.4067559h13.6089039c1.6179132,0,3.1606503,0.1344263,4.6282139,0.3987585
				c1.4651966,0.2643323,2.7550068,0.6904906,3.8670673,1.2807006c1.1120586,0.5902097,1.9916363,1.3649864,2.6433907,2.3243294
				c0.6494617,0.9616385,0.975338,2.1374683,0.975338,3.5275598c0,1.0596232-0.1823406,1.9734159-0.5446587,2.7436728
				c-0.3646126,0.772481-0.8249168,1.4310522-1.3832073,1.9734163c-0.5605831,0.5468845-1.169014,0.9889679-1.8275852,1.326251
				c-0.6562748,0.3418026-1.2898102,0.6061354-1.8936501,0.7952919c-0.6039104,0.1890869-1.1302795,0.3189926-1.5769539,0.3850584
				c-0.4443779,0.0684299-0.7292252,0.1116858-0.8499508,0.1276112c0.1207256,0,0.4603024,0.0251045,1.0208874,0.0775404
				c0.560585,0.0523653,1.2259712,0.1731615,1.9962273,0.362318c0.7701874,0.1913815,1.5905838,0.4694128,2.46105,0.8385477
				c0.8682423,0.3714962,1.6703491,0.8705368,2.4040966,1.4971867c0.7338142,0.6289444,1.3422451,1.4083118,1.8252888,2.3380299
				C27.8375721,21.3327465,28.0813904,22.4539146,28.0813904,23.7710571 M19.0073032,7.9381042
				c0-1.0869546-0.1048012-2.0258522-0.3167667-2.8120337c-0.2118969-0.7861814-0.4876347-1.4469774-0.8271427-1.9848216
				c-0.3418732-0.5377746-0.7269306-0.9707482-1.1576099-1.3057358c-0.430748-0.330398-0.8773518-0.5833251-1.337656-0.7588512
				c-0.4625988-0.1731617-0.9114971-0.2916626-1.3513556-0.3509131c-0.4374943-0.0592505-0.8294373-0.0911706-1.1781254-0.0911706
				h-1.1165791c-0.0592508,0-0.1093912,0.0501403-0.1093912,0.1093909v14.2765837
				c0,0.0592508,0.0501404,0.1070967,0.1093912,0.1070967h1.7044945c0.7429256,0,1.4493418-0.0865812,2.1215429-0.2598124
				c0.6745644-0.1731615,1.2670002-0.5195541,1.7820339-1.0436287c0.5127392-0.5195551,0.9206085-1.2510757,1.2236767-2.1899033
				C18.8569527,10.6977024,19.0073032,9.4671421,19.0073032,7.9381042 M20.5956612,24.0900497
				c0-1.859436-0.1664162-3.3634396-0.4991093-4.5051231c-0.3326912-1.1416855-0.8089218-2.0235577-1.4287567-2.6547966
				c-0.6198349-0.6243553-1.37187-1.0459251-2.2560387-1.2555962c-0.8863926-0.2118969-1.8799505-0.3189926-2.9851942-0.3189926
				h-1.7044945c-0.0592508,0-0.1093912,0.0478449-0.1093912,0.1093903v16.3639126
				c0,0.0592499,0.0501404,0.1070957,0.1093912,0.1070957h2.659317c0.6790857,0,1.3855019-0.0865822,2.1192484-0.2598133
				c0.7338161-0.1731606,1.4037209-0.5332527,2.0076313-1.0778427c0.6061344-0.5446606,1.105175-1.3330669,1.4971867-2.3699493
				C20.3996201,27.1915188,20.5956612,25.8128338,20.5956612,24.0900497"/>
			<path class="st2" d="M28.0813904,23.7710571c0,1.1051731-0.1959724,2.1648674-0.59021,3.1766453
				c-0.3941689,1.0117779-1.0618496,1.905056-2.0075626,2.6752434c-0.945713,0.7725506-2.2036037,1.3877964-3.7759666,1.8481007
				c-1.5723629,0.4603024-3.5320797,0.6927834-5.8746986,0.6927834H0v-0.22789h3.8830624
				c0.0592504,0,0.1093907-0.0478458,0.1093907-0.1070957V0.7439691c0-0.0592505-0.0501404-0.1093909-0.1093907-0.1093909H0
				V0.4067559h13.6089039c1.6179132,0,3.1606503,0.1344263,4.6282139,0.3987585
				c1.4651966,0.2643323,2.7550068,0.6904906,3.8670673,1.2807006c1.1120586,0.5902097,1.9916363,1.3649864,2.6433907,2.3243294
				c0.6494617,0.9616385,0.975338,2.1374683,0.975338,3.5275598c0,1.0596232-0.1823406,1.9734159-0.5446587,2.7436728
				c-0.3646126,0.772481-0.8249168,1.4310522-1.3832073,1.9734163c-0.5605831,0.5468845-1.169014,0.9889679-1.8275852,1.326251
				c-0.6562748,0.3418026-1.2898102,0.6061354-1.8936501,0.7952919c-0.6039104,0.1890869-1.1302795,0.3189926-1.5769539,0.3850584
				c-0.4443779,0.0684299-0.7292252,0.1116858-0.8499508,0.1276112c0.1207256,0,0.4603024,0.0251045,1.0208874,0.0775404
				c0.560585,0.0523653,1.2259712,0.1731615,1.9962273,0.362318c0.7701874,0.1913815,1.5905838,0.4694128,2.46105,0.8385477
				c0.8682423,0.3714962,1.6703491,0.8705368,2.4040966,1.4971867c0.7338142,0.6289444,1.3422451,1.4083118,1.8252888,2.3380299
				C27.8375721,21.3327465,28.0813904,22.4539146,28.0813904,23.7710571 M19.0073032,7.9381042
				c0-1.0869546-0.1048012-2.0258522-0.3167667-2.8120337c-0.2118969-0.7861814-0.4876347-1.4469774-0.8271427-1.9848216
				c-0.3418732-0.5377746-0.7269306-0.9707482-1.1576099-1.3057358c-0.430748-0.330398-0.8773518-0.5833251-1.337656-0.7588512
				c-0.4625988-0.1731617-0.9114971-0.2916626-1.3513556-0.3509131c-0.4374943-0.0592505-0.8294373-0.0911706-1.1781254-0.0911706
				h-1.1165791c-0.0592508,0-0.1093912,0.0501403-0.1093912,0.1093909v14.2765837
				c0,0.0592508,0.0501404,0.1070967,0.1093912,0.1070967h1.7044945c0.7429256,0,1.4493418-0.0865812,2.1215429-0.2598124
				c0.6745644-0.1731615,1.2670002-0.5195541,1.7820339-1.0436287c0.5127392-0.5195551,0.9206085-1.2510757,1.2236767-2.1899033
				C18.8569527,10.6977024,19.0073032,9.4671421,19.0073032,7.9381042 M20.5956612,24.0900497
				c0-1.859436-0.1664162-3.3634396-0.4991093-4.5051231c-0.3326912-1.1416855-0.8089218-2.0235577-1.4287567-2.6547966
				c-0.6198349-0.6243553-1.37187-1.0459251-2.2560387-1.2555962c-0.8863926-0.2118969-1.8799505-0.3189926-2.9851942-0.3189926
				h-1.7044945c-0.0592508,0-0.1093912,0.0478449-0.1093912,0.1093903v16.3639126
				c0,0.0592499,0.0501404,0.1070957,0.1093912,0.1070957h2.659317c0.6790857,0,1.3855019-0.0865822,2.1192484-0.2598133
				c0.7338161-0.1731606,1.4037209-0.5332527,2.0076313-1.0778427c0.6061344-0.5446606,1.105175-1.3330669,1.4971867-2.3699493
				C20.3996201,27.1915188,20.5956612,25.8128338,20.5956612,24.0900497"/>
			<path class="st2" d="M38.0791435,20.776125c-0.0592499,0-0.1093903,0.0500717-0.1093903,0.1093216v1.0254784
				c0,1.5746574,0.0387344,2.9760857,0.1139107,4.2089405c0.0752449,1.2304897,0.2757378,2.2787781,0.6016159,3.1401367
				c0.3258743,0.8636513,0.8203964,1.5199261,1.4857788,1.9734154c0.6653862,0.4534893,1.5791817,0.6813812,2.7436066,0.6813812
				c0.9844475,0,1.9028282-0.1709366,2.75737-0.5104446c0.8545418-0.3395786,1.6225052-0.8409119,2.3015213-1.4971867
				c0.6813812-0.6585712,1.2692947-1.4675636,1.7683334-2.4269066c0.4991112-0.959343,0.8864632-2.0622921,1.1576805-3.3019619
				h0.2278214c-0.3030663,1.3308411-0.7269287,2.5271854-1.2715187,3.5845146
				c-0.5446625,1.0573997-1.2237473,1.9597874-2.0395546,2.698122c-0.8180313,0.7405624-1.7796707,1.3079624-2.882618,1.7021999
				c-1.102951,0.3942375-2.3653603,0.59021-3.7873001,0.59021c-0.9525986,0-1.886837-0.1458321-2.8006287-0.4420853
				c-0.9160881-0.2939568-1.7774467-0.7064152-2.5864372-1.2373734c-0.8089905-0.5286655-1.554142-1.162199-2.2354546-1.9027615
				c-0.6790848-0.7406311-1.2670021-1.5564384-1.757-2.4406052c-0.4921532-0.8841667-0.8727627-1.8252907-1.146204-2.8233681
				c-0.2711468-0.998148-0.4078693-2.0258522-0.4078693-3.0831814c0-1.0596237,0.1367226-2.0873966,0.4078693-3.0877705
				c0.2734413-0.9958534,0.6540508-1.9369764,1.146204-2.823369c0.4899979-0.8841677,1.0779152-1.6954536,1.757-2.4383106
				c0.6813126-0.7406311,1.4264641-1.3763914,2.2354546-1.9028301c0.8089905-0.5308905,1.66576-0.9433489,2.5750313-1.2373753
				c0.9069061-0.2961826,1.8435097-0.4443092,2.8120346-0.4443092c1.4651947,0,2.8392906,0.3189926,4.1176987,0.952528
				c1.2761116,0.6380548,2.3813553,1.497118,3.3110733,2.5750313c0.9297867,1.0823641,1.6635323,2.3448448,2.1990128,3.7873011
				c0.5241432,1.4105377,0.7930641,2.8986149,0.8044014,4.4595737c0.0022926,0.0615444-0.0478477,0.1116848-0.1093216,0.1116848
				H38.0791435z M41.1464005,9.1178284c-0.7406311,0-1.324028,0.209672-1.7478905,0.6221304
				c-0.4215698,0.4192734-0.7405624,1.0003729-0.9525299,1.7478189c-0.211895,0.7497416-0.3418007,1.6498337-0.3964615,2.7003479
				c-0.0524368,1.0528088-0.0797653,2.2173023-0.0797653,3.5047493v2.7482624c0,0.0614758,0.0501404,0.1093903,0.1093903,0.1093903
				h5.6787262c0.0614777,0,0.1093216-0.0524349,0.1093216-0.1116848c0-2.4132061-0.0341454-4.3592911-0.1025047-5.8427792
				c-0.0660667-1.5062971-0.1982689-2.6616125-0.3942375-3.4706039c-0.1982689-0.8089914-0.4740067-1.3467665-0.8294373-1.6088037
				C42.1855087,9.2523241,41.7206154,9.1178284,41.1464005,9.1178284"/>
			<path class="st2" d="M38.0791435,20.776125c-0.0592499,0-0.1093903,0.0500717-0.1093903,0.1093216v1.0254784
				c0,1.5746574,0.0387344,2.9760857,0.1139107,4.2089405c0.0752449,1.2304897,0.2757378,2.2787781,0.6016159,3.1401367
				c0.3258743,0.8636513,0.8203964,1.5199261,1.4857788,1.9734154c0.6653862,0.4534893,1.5791817,0.6813812,2.7436066,0.6813812
				c0.9844475,0,1.9028282-0.1709366,2.75737-0.5104446c0.8545418-0.3395786,1.6225052-0.8409119,2.3015213-1.4971867
				c0.6813812-0.6585712,1.2692947-1.4675636,1.7683334-2.4269066c0.4991112-0.959343,0.8864632-2.0622921,1.1576805-3.3019619
				h0.2278214c-0.3030663,1.3308411-0.7269287,2.5271854-1.2715187,3.5845146
				c-0.5446625,1.0573997-1.2237473,1.9597874-2.0395546,2.698122c-0.8180313,0.7405624-1.7796707,1.3079624-2.882618,1.7021999
				c-1.102951,0.3942375-2.3653603,0.59021-3.7873001,0.59021c-0.9525986,0-1.886837-0.1458321-2.8006287-0.4420853
				c-0.9160881-0.2939568-1.7774467-0.7064152-2.5864372-1.2373734c-0.8089905-0.5286655-1.554142-1.162199-2.2354546-1.9027615
				c-0.6790848-0.7406311-1.2670021-1.5564384-1.757-2.4406052c-0.4921532-0.8841667-0.8727627-1.8252907-1.146204-2.8233681
				c-0.2711468-0.998148-0.4078693-2.0258522-0.4078693-3.0831814c0-1.0596237,0.1367226-2.0873966,0.4078693-3.0877705
				c0.2734413-0.9958534,0.6540508-1.9369764,1.146204-2.823369c0.4899979-0.8841677,1.0779152-1.6954536,1.757-2.4383106
				c0.6813126-0.7406311,1.4264641-1.3763914,2.2354546-1.9028301c0.8089905-0.5308905,1.66576-0.9433489,2.5750313-1.2373753
				c0.9069061-0.2961826,1.8435097-0.4443092,2.8120346-0.4443092c1.4651947,0,2.8392906,0.3189926,4.1176987,0.952528
				c1.2761116,0.6380548,2.3813553,1.497118,3.3110733,2.5750313c0.9297867,1.0823641,1.6635323,2.3448448,2.1990128,3.7873011
				c0.5241432,1.4105377,0.7930641,2.8986149,0.8044014,4.4595737c0.0022926,0.0615444-0.0478477,0.1116848-0.1093216,0.1116848
				H38.0791435z M41.1464005,9.1178284c-0.7406311,0-1.324028,0.209672-1.7478905,0.6221304
				c-0.4215698,0.4192734-0.7405624,1.0003729-0.9525299,1.7478189c-0.211895,0.7497416-0.3418007,1.6498337-0.3964615,2.7003479
				c-0.0524368,1.0528088-0.0797653,2.2173023-0.0797653,3.5047493v2.7482624c0,0.0614758,0.0501404,0.1093903,0.1093903,0.1093903
				h5.6787262c0.0614777,0,0.1093216-0.0524349,0.1093216-0.1116848c0-2.4132061-0.0341454-4.3592911-0.1025047-5.8427792
				c-0.0660667-1.5062971-0.1982689-2.6616125-0.3942375-3.4706039c-0.1982689-0.8089914-0.4740067-1.3467665-0.8294373-1.6088037
				C42.1855087,9.2523241,41.7206154,9.1178284,41.1464005,9.1178284"/>
			<path class="st2" d="M59.3611221,32.7524414c-0.9502335,0-1.8093643-0.1458321-2.5727348-0.4420853
				c-0.7633743-0.2939568-1.4151268-0.6995983-1.9506073-1.2122688c-0.5378456-0.5150337-0.9503021-1.1234646-1.2373772-1.8253593
				c-0.2871399-0.7041206-0.430748-1.4629726-0.430748-2.281004c0-0.9069786,0.1618271-1.727375,0.4877052-2.4611206
				c0.3258781-0.731451,0.7610779-1.3740978,1.3057365-1.927866c0.5423622-0.551405,1.1667175-1.0048943,1.870842-1.3603973
				c0.7018929-0.3577976,1.431118-0.6084309,2.1876755-0.7588501c0.560585-0.1070976,1.0185928-0.182272,1.3740959-0.2278919
				c0.3532104-0.0432568,0.6630936-0.0796967,0.929718-0.1025066c0.2643318-0.02281,0.5104446-0.0433254,0.736042-0.0683613
				c0.2278938-0.02281,0.4990387-0.0774708,0.8158073-0.1686401c0.5446587-0.152647,1.0299988-0.4443798,1.4538612-0.8750572
				c0.4147568-0.4238644,0.8158112-0.9000931,1.2009354-1.4310532c0.0159225-0.0205154,0.0228119-0.04562,0.0228119-0.0660648
				v-4.4550524c0-1.3467665-0.314476-2.3175144-0.9411926-2.9168348c-0.6289482-0.5947304-1.5836983-0.8955717-2.8689919-0.8955717
				c-0.6653824,0-1.3421745,0.0911703-2.0303688,0.2734423c-0.6881981,0.1800461-1.3353615,0.4329729-1.9392052,0.7588511
				c-0.6039085,0.3235826-1.1462708,0.7110052-1.6225014,1.1576099c-0.4762993,0.4466734-0.8431358,0.9251976-1.1006546,1.4402313
				c0.3486176-0.4991083,0.7952919-0.8910522,1.3398819-1.1804199c0.5446587-0.2871418,1.1325722-0.4306784,1.7683334-0.4306784
				c0.5287361,0,1.0277748,0.1025057,1.4971886,0.3053627c0.4694138,0.205081,0.8773537,0.4808187,1.2236748,0.8294373
				c0.3486862,0.3486872,0.624424,0.7565556,0.8295059,1.2259703c0.2050819,0.4694834,0.3053627,0.9662275,0.3053627,1.4971867
				c0,0.52637-0.1002808,1.0277033-0.3053627,1.4948931c-0.2050819,0.4694138-0.4808197,0.8772831-0.8295059,1.2259693
				c-0.3463211,0.3486195-0.754261,0.6243553-1.2236748,0.8249168c-0.4694138,0.2050819-0.9684525,0.3076572-1.4971886,0.3076572
				c-0.6357613,0-1.1940498-0.1139793-1.6794586-0.3395767c-0.4830437-0.2278919-0.8841667-0.5332546-1.2008629-0.9183121
				c-0.3167686-0.385128-0.560585-0.8318024-0.7269325-1.337656c-0.1663475-0.5081501-0.2484055-1.0345898-0.2484055-1.5769539
				c0-0.906908,0.257515-1.729599,0.7701836-2.461051c0.5150337-0.7337456,1.1599045-1.3581705,1.9392738-1.8709097
				c0.7793655-0.5149651,1.6384277-0.9092035,2.5750313-1.1803503c0.9365997-0.2712173,1.8298798-0.407938,2.677536-0.407938
				c1.6772346,0,3.1698341,0.193676,4.4800911,0.5765095c1.3057327,0.3874235,2.4109726,0.9320822,3.3110657,1.6339083
				c0.9000931,0.7041216,1.5837708,1.547328,2.0531845,2.5317068c0.4671173,0.9821529,0.7018967,2.0714016,0.7018967,3.265521
				v11.8404999c0,0.9388981,0.1503525,1.6156883,0.4534225,2.0395508c0.3031311,0.4260902,0.7269287,0.6357613,1.2715836,0.6357613
				c0.5286713,0,0.9252014-0.193676,1.189537-0.578804c0.264328-0.385128,0.4580078-0.8704681,0.578804-1.4629726h0.22789
				c-0.0774689,0.4238625-0.2050858,0.8363209-0.3874207,1.2373753c-0.1800461,0.4010525-0.4306793,0.7588501-0.7474518,1.0755482
				c-0.3189926,0.3190632-0.7155228,0.5719891-1.1917496,0.758852c-0.4763031,0.1891556-1.0619202,0.2848473-1.7570038,0.2848473
				c-0.922905,0-1.7682648-0.1207962-2.5408173-0.3623161c-0.7701874-0.2415237-1.4515686-0.5742874-2.0417786-0.9980812
				c-0.5879135-0.4238625-1.0733185-0.9069767-1.451561-1.4516354c-0.3783188-0.54459-0.6198349-1.1256905-0.7246399-1.7478199
				c-0.0911713,0.4717083-0.2689209,0.968523-0.5332565,1.4994812c-0.264328,0.5286655-0.6471634,1.0208893-1.1462021,1.4720821
				c-0.4991074,0.4534893-1.1257591,0.8317337-1.8823166,1.1348019
				C61.3732758,32.6020203,60.4503708,32.7524414,59.3611221,32.7524414 M65.5548859,17.9859276
				c-0.2415924,0.3486881-0.4694824,0.6426468-0.6813812,0.8864632c-0.2119675,0.2415924-0.4238663,0.4580784-0.6335373,0.6449394
				c-0.2118988,0.1890869-0.4237938,0.3554344-0.6357574,0.5013351c-0.2118988,0.1435356-0.4397888,0.2825527-0.6813812,0.4169788
				c-0.7109375,0.3942375-1.3034439,0.9206066-1.7796707,1.576952c-0.4762993,0.6585712-0.7155266,1.5176334-0.7155266,2.5749626
				v3.7190113c0,0.5605831,0.0204468,1.0550327,0.0569572,1.4880066c0.0387344,0.4284534,0.1139107,0.793066,0.22789,1.0870247
				c0.1139107,0.2939568,0.2665596,0.5217781,0.4648247,0.6813107c0.1959724,0.1572361,0.4603043,0.2370014,0.7929955,0.2370014
				c0.5150337,0,0.991333-0.1504211,1.4288292-0.4534893c0.4397888-0.3030663,0.8181038-0.6767902,1.1348-1.123394
				c0.3190613-0.4443779,0.5674667-0.9206772,0.7497406-1.4288273c0.1800461-0.5058537,0.2712173-0.963932,0.2712173-1.3695068
				V17.9859276z"/>
			<path class="st2" d="M59.3611221,32.7524414c-0.9502335,0-1.8093643-0.1458321-2.5727348-0.4420853
				c-0.7633743-0.2939568-1.4151268-0.6995983-1.9506073-1.2122688c-0.5378456-0.5150337-0.9503021-1.1234646-1.2373772-1.8253593
				c-0.2871399-0.7041206-0.430748-1.4629726-0.430748-2.281004c0-0.9069786,0.1618271-1.727375,0.4877052-2.4611206
				c0.3258781-0.731451,0.7610779-1.3740978,1.3057365-1.927866c0.5423622-0.551405,1.1667175-1.0048943,1.870842-1.3603973
				c0.7018929-0.3577976,1.431118-0.6084309,2.1876755-0.7588501c0.560585-0.1070976,1.0185928-0.182272,1.3740959-0.2278919
				c0.3532104-0.0432568,0.6630936-0.0796967,0.929718-0.1025066c0.2643318-0.02281,0.5104446-0.0433254,0.736042-0.0683613
				c0.2278938-0.02281,0.4990387-0.0774708,0.8158073-0.1686401c0.5446587-0.152647,1.0299988-0.4443798,1.4538612-0.8750572
				c0.4147568-0.4238644,0.8158112-0.9000931,1.2009354-1.4310532c0.0159225-0.0205154,0.0228119-0.04562,0.0228119-0.0660648
				v-4.4550524c0-1.3467665-0.314476-2.3175144-0.9411926-2.9168348c-0.6289482-0.5947304-1.5836983-0.8955717-2.8689919-0.8955717
				c-0.6653824,0-1.3421745,0.0911703-2.0303688,0.2734423c-0.6881981,0.1800461-1.3353615,0.4329729-1.9392052,0.7588511
				c-0.6039085,0.3235826-1.1462708,0.7110052-1.6225014,1.1576099c-0.4762993,0.4466734-0.8431358,0.9251976-1.1006546,1.4402313
				c0.3486176-0.4991083,0.7952919-0.8910522,1.3398819-1.1804199c0.5446587-0.2871418,1.1325722-0.4306784,1.7683334-0.4306784
				c0.5287361,0,1.0277748,0.1025057,1.4971886,0.3053627c0.4694138,0.205081,0.8773537,0.4808187,1.2236748,0.8294373
				c0.3486862,0.3486872,0.624424,0.7565556,0.8295059,1.2259703c0.2050819,0.4694834,0.3053627,0.9662275,0.3053627,1.4971867
				c0,0.52637-0.1002808,1.0277033-0.3053627,1.4948931c-0.2050819,0.4694138-0.4808197,0.8772831-0.8295059,1.2259693
				c-0.3463211,0.3486195-0.754261,0.6243553-1.2236748,0.8249168c-0.4694138,0.2050819-0.9684525,0.3076572-1.4971886,0.3076572
				c-0.6357613,0-1.1940498-0.1139793-1.6794586-0.3395767c-0.4830437-0.2278919-0.8841667-0.5332546-1.2008629-0.9183121
				c-0.3167686-0.385128-0.560585-0.8318024-0.7269325-1.337656c-0.1663475-0.5081501-0.2484055-1.0345898-0.2484055-1.5769539
				c0-0.906908,0.257515-1.729599,0.7701836-2.461051c0.5150337-0.7337456,1.1599045-1.3581705,1.9392738-1.8709097
				c0.7793655-0.5149651,1.6384277-0.9092035,2.5750313-1.1803503c0.9365997-0.2712173,1.8298798-0.407938,2.677536-0.407938
				c1.6772346,0,3.1698341,0.193676,4.4800911,0.5765095c1.3057327,0.3874235,2.4109726,0.9320822,3.3110657,1.6339083
				c0.9000931,0.7041216,1.5837708,1.547328,2.0531845,2.5317068c0.4671173,0.9821529,0.7018967,2.0714016,0.7018967,3.265521
				v11.8404999c0,0.9388981,0.1503525,1.6156883,0.4534225,2.0395508c0.3031311,0.4260902,0.7269287,0.6357613,1.2715836,0.6357613
				c0.5286713,0,0.9252014-0.193676,1.189537-0.578804c0.264328-0.385128,0.4580078-0.8704681,0.578804-1.4629726h0.22789
				c-0.0774689,0.4238625-0.2050858,0.8363209-0.3874207,1.2373753c-0.1800461,0.4010525-0.4306793,0.7588501-0.7474518,1.0755482
				c-0.3189926,0.3190632-0.7155228,0.5719891-1.1917496,0.758852c-0.4763031,0.1891556-1.0619202,0.2848473-1.7570038,0.2848473
				c-0.922905,0-1.7682648-0.1207962-2.5408173-0.3623161c-0.7701874-0.2415237-1.4515686-0.5742874-2.0417786-0.9980812
				c-0.5879135-0.4238625-1.0733185-0.9069767-1.451561-1.4516354c-0.3783188-0.54459-0.6198349-1.1256905-0.7246399-1.7478199
				c-0.0911713,0.4717083-0.2689209,0.968523-0.5332565,1.4994812c-0.264328,0.5286655-0.6471634,1.0208893-1.1462021,1.4720821
				c-0.4991074,0.4534893-1.1257591,0.8317337-1.8823166,1.1348019
				C61.3732758,32.6020203,60.4503708,32.7524414,59.3611221,32.7524414 M65.5548859,17.9859276
				c-0.2415924,0.3486881-0.4694824,0.6426468-0.6813812,0.8864632c-0.2119675,0.2415924-0.4238663,0.4580784-0.6335373,0.6449394
				c-0.2118988,0.1890869-0.4237938,0.3554344-0.6357574,0.5013351c-0.2118988,0.1435356-0.4397888,0.2825527-0.6813812,0.4169788
				c-0.7109375,0.3942375-1.3034439,0.9206066-1.7796707,1.576952c-0.4762993,0.6585712-0.7155266,1.5176334-0.7155266,2.5749626
				v3.7190113c0,0.5605831,0.0204468,1.0550327,0.0569572,1.4880066c0.0387344,0.4284534,0.1139107,0.793066,0.22789,1.0870247
				c0.1139107,0.2939568,0.2665596,0.5217781,0.4648247,0.6813107c0.1959724,0.1572361,0.4603043,0.2370014,0.7929955,0.2370014
				c0.5150337,0,0.991333-0.1504211,1.4288292-0.4534893c0.4397888-0.3030663,0.8181038-0.6767902,1.1348-1.123394
				c0.3190613-0.4443779,0.5674667-0.9206772,0.7497406-1.4288273c0.1800461-0.5058537,0.2712173-0.963932,0.2712173-1.3695068
				V17.9859276z"/>
			<path class="st2" d="M73.5843658,9.4805632h12.9753036v0.2278919h-1.9779434
				c-0.0615387,0-0.1093903,0.0478458-0.1093903,0.1070967V27.309742c0,0.8454323,0.0296249,1.5609589,0.0911713,2.1443539
				c0.0592499,0.5833931,0.1617584,1.0573292,0.3053665,1.4288254c0.1435318,0.3714294,0.3372116,0.6380558,0.578804,0.8044033
				c0.2415237,0.1663456,0.5514755,0.2483368,0.929718,0.2483368c0.3919449,0,0.7747726-0.1230221,1.1439819-0.373724
				c0.3714218-0.2483368,0.7155228-0.5879135,1.0345154-1.0208874c0.3167648-0.4306793,0.597023-0.929718,0.8386154-1.497118
				c0.239296-0.560585,0.4420853-1.1667194,0.608429-1.8093662c0.0022964-0.011404,0.0045242-0.0205135,0.0045242-0.0319195
				V9.8155518c0-0.0592508-0.0500717-0.1070967-0.1093216-0.1070967h-1.9780045V9.4805632h9.2359085
				c0.0614777,0,0.1093903,0.0479155,0.1093903,0.1093912v22.2386112c0,0.0592499,0.0478439,0.1070957,0.1093216,0.1070957
				h3.5184479v0.22789H90.114624c-0.0592499,0-0.1071625-0.0478439-0.1071625-0.1093903v-4.0630379
				c-0.2438202,0.8454323-0.5445938,1.5700684-0.9092026,2.1648674c-0.3623199,0.5970249-0.7747803,1.0892487-1.2350845,1.474308
				c-0.4625931,0.3874245-0.9707489,0.6699753-1.5313339,0.8523178c-0.560585,0.1799774-1.1484985,0.2711449-1.7683334,0.2711449
				c-1.3012161,0-2.413269-0.2210045-3.336174-0.6585693c-0.922905-0.4397888-1.6816864-1.0345879-2.2787781-1.7911453
				c-0.5970306-0.7565556-1.0368195-1.6406536-1.3148499-2.6524315c-0.2802582-1.0163689-0.4192734-2.0942135-0.4192734-3.2450066
				V9.8155518c0-0.0592508-0.0501404-0.1070967-0.1093903-0.1070967h-3.5206757V9.4805632z"/>
			<path class="st2" d="M73.5843658,9.4805632h12.9753036v0.2278919h-1.9779434
				c-0.0615387,0-0.1093903,0.0478458-0.1093903,0.1070967V27.309742c0,0.8454323,0.0296249,1.5609589,0.0911713,2.1443539
				c0.0592499,0.5833931,0.1617584,1.0573292,0.3053665,1.4288254c0.1435318,0.3714294,0.3372116,0.6380558,0.578804,0.8044033
				c0.2415237,0.1663456,0.5514755,0.2483368,0.929718,0.2483368c0.3919449,0,0.7747726-0.1230221,1.1439819-0.373724
				c0.3714218-0.2483368,0.7155228-0.5879135,1.0345154-1.0208874c0.3167648-0.4306793,0.597023-0.929718,0.8386154-1.497118
				c0.239296-0.560585,0.4420853-1.1667194,0.608429-1.8093662c0.0022964-0.011404,0.0045242-0.0205135,0.0045242-0.0319195
				V9.8155518c0-0.0592508-0.0500717-0.1070967-0.1093216-0.1070967h-1.9780045V9.4805632h9.2359085
				c0.0614777,0,0.1093903,0.0479155,0.1093903,0.1093912v22.2386112c0,0.0592499,0.0478439,0.1070957,0.1093216,0.1070957
				h3.5184479v0.22789H90.114624c-0.0592499,0-0.1071625-0.0478439-0.1071625-0.1093903v-4.0630379
				c-0.2438202,0.8454323-0.5445938,1.5700684-0.9092026,2.1648674c-0.3623199,0.5970249-0.7747803,1.0892487-1.2350845,1.474308
				c-0.4625931,0.3874245-0.9707489,0.6699753-1.5313339,0.8523178c-0.560585,0.1799774-1.1484985,0.2711449-1.7683334,0.2711449
				c-1.3012161,0-2.413269-0.2210045-3.336174-0.6585693c-0.922905-0.4397888-1.6816864-1.0345879-2.2787781-1.7911453
				c-0.5970306-0.7565556-1.0368195-1.6406536-1.3148499-2.6524315c-0.2802582-1.0163689-0.4192734-2.0942135-0.4192734-3.2450066
				V9.8155518c0-0.0592508-0.0501404-0.1070967-0.1093903-0.1070967h-3.5206757V9.4805632z"/>
			<path class="st2" d="M109.1207504,9.707551c-0.0615463,0-0.1093979,0.0479155-0.1093979,0.1093912v19.1235104
				c0,0.6380539,0.1276169,1.1667881,0.3850632,1.5905819c0.257515,0.4238644,0.6585693,0.6335354,1.2032318,0.6335354
				c0.3326874,0,0.6016083-0.0934658,0.8043976-0.2825527c0.2050858-0.1891556,0.3646164-0.432972,0.4763031-0.7360401
				c0.1139069-0.3030682,0.1890869-0.6403503,0.2278214-1.0117779c0.0365067-0.3692036,0.0570221-0.736042,0.0570221-1.0983601
				v-4.8994312h0.2483368v5.170578c0,0.6653862-0.0706558,1.2715206-0.2141876,1.8161812
				c-0.1435394,0.5423641-0.3828354,1.0071888-0.7155304,1.3923168c-0.332695,0.3874226-0.770256,0.6904907-1.3148422,0.9092712
				c-0.5446625,0.2164879-1.2168655,0.3281021-2.0190353,0.3281021c-1.0892563,0-2.0348969-0.1686401-2.8347778-0.5081482
				c-0.8021088-0.3418026-1.4675598-0.8272114-1.9962234-1.4538612c-0.5309601-0.6266518-0.922905-1.3809128-1.1804199-2.267374
				c-0.2574539-0.8864632-0.3850632-1.864027-0.3850632-2.9373493V9.8169422c0-0.0614758-0.0479126-0.1093912-0.1093903-0.1093912
				H98.168869V9.4797287h1.1804199c1.3308411,0,2.5705109-0.205081,3.7190094-0.6221294
				c1.150795-0.4170485,2.1465759-1.0277038,2.9943008-1.8389902c0.8477325-0.8066969,1.5131149-1.7979603,1.9962311-2.9692001
				C108.5418701,2.878099,108.785759,1.5267431,108.785759,0h0.2255936v9.372633
				c0,0.0592508,0.0478516,0.1070957,0.1093979,0.1070957h4.3820267V9.707551H109.1207504z"/>
			<path class="st2" d="M109.1207504,9.707551c-0.0615463,0-0.1093979,0.0479155-0.1093979,0.1093912v19.1235104
				c0,0.6380539,0.1276169,1.1667881,0.3850632,1.5905819c0.257515,0.4238644,0.6585693,0.6335354,1.2032318,0.6335354
				c0.3326874,0,0.6016083-0.0934658,0.8043976-0.2825527c0.2050858-0.1891556,0.3646164-0.432972,0.4763031-0.7360401
				c0.1139069-0.3030682,0.1890869-0.6403503,0.2278214-1.0117779c0.0365067-0.3692036,0.0570221-0.736042,0.0570221-1.0983601
				v-4.8994312h0.2483368v5.170578c0,0.6653862-0.0706558,1.2715206-0.2141876,1.8161812
				c-0.1435394,0.5423641-0.3828354,1.0071888-0.7155304,1.3923168c-0.332695,0.3874226-0.770256,0.6904907-1.3148422,0.9092712
				c-0.5446625,0.2164879-1.2168655,0.3281021-2.0190353,0.3281021c-1.0892563,0-2.0348969-0.1686401-2.8347778-0.5081482
				c-0.8021088-0.3418026-1.4675598-0.8272114-1.9962234-1.4538612c-0.5309601-0.6266518-0.922905-1.3809128-1.1804199-2.267374
				c-0.2574539-0.8864632-0.3850632-1.864027-0.3850632-2.9373493V9.8169422c0-0.0614758-0.0479126-0.1093912-0.1093903-0.1093912
				H98.168869V9.4797287h1.1804199c1.3308411,0,2.5705109-0.205081,3.7190094-0.6221294
				c1.150795-0.4170485,2.1465759-1.0277038,2.9943008-1.8389902c0.8477325-0.8066969,1.5131149-1.7979603,1.9962311-2.9692001
				C108.5418701,2.878099,108.785759,1.5267431,108.785759,0h0.2255936v9.372633
				c0,0.0592508,0.0478516,0.1070957,0.1093979,0.1070957h4.3820267V9.707551H109.1207504z"/>
			<path class="st2" d="M117.0860443,43.2771912c-1.0277786,0-1.8709106-0.175457-2.52948-0.5308914
				c-0.6562805-0.3577957-1.1781311-0.7952919-1.5655518-1.3171387c-0.3850555-0.5218506-0.6539764-1.0756187-0.8043976-1.6658287
				c-0.1503525-0.59021-0.227829-1.1279869-0.227829-1.6110992c0-0.54459,0.1025085-1.0550346,0.3075943-1.5313339
				c0.2028503-0.4762268,0.4877014-0.8886871,0.8500214-1.2373734c0.3623123-0.3463936,0.7838821-0.6221313,1.2601166-0.8272133
				c0.4762955-0.2050819,0.9867401-0.3053627,1.5291061-0.3053627c0.5309601,0,1.0345154,0.1002808,1.5108185,0.3053627
				c0.4762268,0.2050819,0.890976,0.4808197,1.2464828,0.8272133c0.3554993,0.3486862,0.6357574,0.7611465,0.8386154,1.2373734
				c0.2050858,0.4762993,0.3075867,0.9867439,0.3075867,1.5313339c0,0.5423622-0.1025009,1.0551033-0.3075867,1.5313339
				c-0.202858,0.4762955-0.4831161,0.8932762-0.8386154,1.2601852c-0.3555069,0.3623161-0.770256,0.6448708-1.2464828,0.8500214
				c-0.4763031,0.2027855-0.9798584,0.3030663-1.5108185,0.3030663c-0.6198349,0-1.2100449-0.1458321-1.7683334-0.4420815
				c-0.5582962-0.2939606-1.0277786-0.6676826-1.4060211-1.12117c0.1504211,0.3030663,0.344101,0.6061325,0.578804,0.9069061
				c0.2347107,0.3031387,0.524147,0.5742836,0.8727646,0.8181038c0.3486862,0.239296,0.7611465,0.432972,1.2373734,0.578804
				c0.4763031,0.1413116,1.0299988,0.2141914,1.6658325,0.2141914c0.8476562,0,1.5836945-0.1367226,2.2126389-0.4078674
				c0.6266556-0.2711487,1.1827164-0.6585732,1.6658325-1.1576118c0.4853363-0.4990387,0.9069061-1.1052437,1.2715225-1.8138847
				c0.3623123-0.7132988,0.701889-1.5062981,1.0208893-2.3813553l1.4811859-4.1336937
				c0.0091858-0.0251045,0.0091858-0.0547295-0.0022202-0.0797653l-9.8898926-23.3028259
				c-0.0159988-0.0409603-0.0570297-0.0660658-0.1002808-0.0660658h-6.02742V9.4806328h17.0315933v0.2278919h-2.6912384
				c-0.0796967,0-0.1321259,0.0797663-0.1025009,0.1504211l5.293602,12.5401001
				c0.0387268,0.0911713,0.170929,0.0865803,0.202774-0.006815l4.370697-12.5401697
				c0.025116-0.0683603-0.0273285-0.1435366-0.1024933-0.1435366h-3.2951508V9.4806328h7.4402466v0.2278919h-3.6437683
				c-0.0456238,0-0.0865784,0.0273304-0.1025696,0.0729504l-9.5913544,27.5093994
				c-0.3167648,0.9366035-0.6722641,1.7706299-1.0665054,2.5066719c-0.3919449,0.7314529-0.8431396,1.3581009-1.3489914,1.8822441
				c-0.5082169,0.5195541-1.0893173,0.9160881-1.7455902,1.1895332
				C118.7084732,43.1404686,117.947403,43.2771912,117.0860443,43.2771912"/>
			<path class="st2" d="M117.0860443,43.2771912c-1.0277786,0-1.8709106-0.175457-2.52948-0.5308914
				c-0.6562805-0.3577957-1.1781311-0.7952919-1.5655518-1.3171387c-0.3850555-0.5218506-0.6539764-1.0756187-0.8043976-1.6658287
				c-0.1503525-0.59021-0.227829-1.1279869-0.227829-1.6110992c0-0.54459,0.1025085-1.0550346,0.3075943-1.5313339
				c0.2028503-0.4762268,0.4877014-0.8886871,0.8500214-1.2373734c0.3623123-0.3463936,0.7838821-0.6221313,1.2601166-0.8272133
				c0.4762955-0.2050819,0.9867401-0.3053627,1.5291061-0.3053627c0.5309601,0,1.0345154,0.1002808,1.5108185,0.3053627
				c0.4762268,0.2050819,0.890976,0.4808197,1.2464828,0.8272133c0.3554993,0.3486862,0.6357574,0.7611465,0.8386154,1.2373734
				c0.2050858,0.4762993,0.3075867,0.9867439,0.3075867,1.5313339c0,0.5423622-0.1025009,1.0551033-0.3075867,1.5313339
				c-0.202858,0.4762955-0.4831161,0.8932762-0.8386154,1.2601852c-0.3555069,0.3623161-0.770256,0.6448708-1.2464828,0.8500214
				c-0.4763031,0.2027855-0.9798584,0.3030663-1.5108185,0.3030663c-0.6198349,0-1.2100449-0.1458321-1.7683334-0.4420815
				c-0.5582962-0.2939606-1.0277786-0.6676826-1.4060211-1.12117c0.1504211,0.3030663,0.344101,0.6061325,0.578804,0.9069061
				c0.2347107,0.3031387,0.524147,0.5742836,0.8727646,0.8181038c0.3486862,0.239296,0.7611465,0.432972,1.2373734,0.578804
				c0.4763031,0.1413116,1.0299988,0.2141914,1.6658325,0.2141914c0.8476562,0,1.5836945-0.1367226,2.2126389-0.4078674
				c0.6266556-0.2711487,1.1827164-0.6585732,1.6658325-1.1576118c0.4853363-0.4990387,0.9069061-1.1052437,1.2715225-1.8138847
				c0.3623123-0.7132988,0.701889-1.5062981,1.0208893-2.3813553l1.4811859-4.1336937
				c0.0091858-0.0251045,0.0091858-0.0547295-0.0022202-0.0797653l-9.8898926-23.3028259
				c-0.0159988-0.0409603-0.0570297-0.0660658-0.1002808-0.0660658h-6.02742V9.4806328h17.0315933v0.2278919h-2.6912384
				c-0.0796967,0-0.1321259,0.0797663-0.1025009,0.1504211l5.293602,12.5401001
				c0.0387268,0.0911713,0.170929,0.0865803,0.202774-0.006815l4.370697-12.5401697
				c0.025116-0.0683603-0.0273285-0.1435366-0.1024933-0.1435366h-3.2951508V9.4806328h7.4402466v0.2278919h-3.6437683
				c-0.0456238,0-0.0865784,0.0273304-0.1025696,0.0729504l-9.5913544,27.5093994
				c-0.3167648,0.9366035-0.6722641,1.7706299-1.0665054,2.5066719c-0.3919449,0.7314529-0.8431396,1.3581009-1.3489914,1.8822441
				c-0.5082169,0.5195541-1.0893173,0.9160881-1.7455902,1.1895332
				C118.7084732,43.1404686,117.947403,43.2771912,117.0860443,43.2771912"/>
			<path class="st2" d="M169.1896057,32.1637611h-15.6051331v-0.2278214h3.8830719
				c0.0592499,0,0.1093903-0.0478458,0.1093903-0.1070957V2.6422098c0-0.1276112-0.1777496-0.1526465-0.2142029-0.0341456
				l-8.9943848,29.7038212c-0.0296173,0.1002808-0.1686401,0.1048737-0.2073822,0.0091133L137.2821045,4.0391164
				c-0.0433197-0.1116858-0.2118835-0.0797656-0.2118835,0.0410304v27.7486973c0,0.0592499,0.0500641,0.1070957,0.109314,0.1070957
				h3.748642v0.2278214h-8.1215668v-0.2278214h3.8829956c0.0592499,0,0.1093903-0.0478458,0.1093903-0.1070957V0.7439691
				c0-0.0592505-0.0501404-0.1093909-0.1093903-0.1093909h-3.9741669V0.4067559h11.4941864
				c0.0455475,0,0.0842743,0.0296253,0.1002045,0.0728809l7.4129181,19.1873493
				c0.0387268,0.0956917,0.1754608,0.0911713,0.2073822-0.0091095l5.8040314-19.1713562
				c0.0136414-0.047915,0.0569611-0.0797656,0.1048126-0.0797656h11.3506317v0.2278223h-3.8830566
				c-0.0592499,0-0.1093903,0.0501403-0.1093903,0.1093909v31.0848751c0,0.0592499,0.0501404,0.1070957,0.1093903,0.1070957
				h3.8830566V32.1637611z"/>
			<path class="st2" d="M169.1896057,32.1637611h-15.6051331v-0.2278214h3.8830719
				c0.0592499,0,0.1093903-0.0478458,0.1093903-0.1070957V2.6422098c0-0.1276112-0.1777496-0.1526465-0.2142029-0.0341456
				l-8.9943848,29.7038212c-0.0296173,0.1002808-0.1686401,0.1048737-0.2073822,0.0091133L137.2821045,4.0391164
				c-0.0433197-0.1116858-0.2118835-0.0797656-0.2118835,0.0410304v27.7486973c0,0.0592499,0.0500641,0.1070957,0.109314,0.1070957
				h3.748642v0.2278214h-8.1215668v-0.2278214h3.8829956c0.0592499,0,0.1093903-0.0478458,0.1093903-0.1070957V0.7439691
				c0-0.0592505-0.0501404-0.1093909-0.1093903-0.1093909h-3.9741669V0.4067559h11.4941864
				c0.0455475,0,0.0842743,0.0296253,0.1002045,0.0728809l7.4129181,19.1873493
				c0.0387268,0.0956917,0.1754608,0.0911713,0.2073822-0.0091095l5.8040314-19.1713562
				c0.0136414-0.047915,0.0569611-0.0797656,0.1048126-0.0797656h11.3506317v0.2278223h-3.8830566
				c-0.0592499,0-0.1093903,0.0501403-0.1093903,0.1093909v31.0848751c0,0.0592499,0.0501404,0.1070957,0.1093903,0.1070957
				h3.8830566V32.1637611z"/>
			<path class="st2" d="M174.9273071,32.7524414c-0.9502411,0-1.8093719-0.1458321-2.5727386-0.4420853
				c-0.7633667-0.2939568-1.4151306-0.6995983-1.9506073-1.2122688c-0.5378418-0.5150337-0.9503021-1.1234646-1.2373657-1.8253593
				c-0.2871552-0.7041206-0.4307556-1.4629726-0.4307556-2.281004c0-0.9069786,0.1618195-1.727375,0.4877014-2.4611206
				c0.325882-0.731451,0.7610779-1.3740978,1.3034363-1.927866c0.5446625-0.551405,1.1690216-1.0048943,1.8731384-1.3603973
				c0.7019043-0.3577976,1.4311218-0.6084309,2.1876831-0.7588501c0.5582886-0.1070976,1.0162964-0.182272,1.3740997-0.2278919
				c0.3532104-0.0432568,0.6630859-0.0796967,0.929718-0.1025066c0.264328-0.02281,0.5081482-0.0433254,0.7360382-0.0683613
				c0.22789-0.02281,0.4990387-0.0774708,0.8158112-0.1686401c0.5446472-0.152647,1.0299988-0.4443798,1.4515686-0.8750572
				c0.417038-0.4238644,0.8181-0.9000931,1.2032166-1.4310532c0.0159302-0.0205154,0.0228119-0.04562,0.0228119-0.0660648
				v-4.4550524c0-1.3467665-0.3144684-2.3175144-0.9411926-2.9168348c-0.6289368-0.5947304-1.5859833-0.8955717-2.868988-0.8955717
				c-0.6676788,0-1.3421783,0.0911703-2.030365,0.2734423c-0.6882019,0.1800461-1.3353577,0.4329729-1.939209,0.7588511
				c-0.6062012,0.3235826-1.1462708,0.7110052-1.6224976,1.1576099c-0.4763031,0.4466734-0.8431396,0.9251976-1.1006622,1.4402313
				c0.3486176-0.4991083,0.7953033-0.8910522,1.3398895-1.1804199c0.5423584-0.2871418,1.1325684-0.4306784,1.7683258-0.4306784
				c0.5287476,0,1.0277863,0.1025057,1.4971924,0.3053627c0.4671173,0.205081,0.8773499,0.4808187,1.2236786,0.8294373
				c0.3486938,0.3486872,0.6244202,0.7565556,0.8295135,1.2259703c0.202774,0.4694834,0.3053589,0.9662275,0.3053589,1.4971867
				c0,0.52637-0.1025848,1.0277033-0.3053589,1.4948931c-0.2050934,0.4694138-0.4808197,0.8772831-0.8295135,1.2259693
				c-0.3463287,0.3486195-0.7565613,0.6243553-1.2236786,0.8249168c-0.4694061,0.2050819-0.9684448,0.3076572-1.4971924,0.3076572
				c-0.6357574,0-1.194046-0.1139793-1.6794586-0.3395767c-0.4830322-0.2278919-0.8841553-0.5332546-1.2008514-0.9183121
				c-0.3190765-0.385128-0.5605927-0.8318024-0.726944-1.337656c-0.1663361-0.5081501-0.2483978-1.0345898-0.2483978-1.5769539
				c0-0.906908,0.2575073-1.729599,0.7701874-2.461051c0.5150299-0.7337456,1.1598969-1.3581705,1.93927-1.8709097
				c0.7793579-0.5149651,1.6361237-0.9092035,2.5750275-1.1803503c0.9365997-0.2712173,1.8298798-0.407938,2.677536-0.407938
				c1.6772308,0,3.1698303,0.193676,4.4777985,0.5765095c1.3080292,0.3874235,2.413269,0.9320822,3.3133698,1.6339083
				c0.8978577,0.7041216,1.5837555,1.547328,2.0531769,2.5317068c0.4671173,0.9821529,0.701889,2.0714016,0.701889,3.265521
				v11.8404999c0,0.9388981,0.1503601,1.6156883,0.4534302,2.0395508c0.3031311,0.4260902,0.7269287,0.6357613,1.2692871,0.6357613
				c0.5309601,0,0.9274902-0.193676,1.1918335-0.578804c0.264328-0.385128,0.4580078-0.8704681,0.5787964-1.4629726h0.2256012
				c-0.0751801,0.4238625-0.2027893,0.8363209-0.3851318,1.2373753c-0.1800385,0.4010525-0.4306793,0.7588501-0.7474365,1.0755482
				c-0.3190002,0.3190632-0.7155304,0.5719891-1.1917572,0.758852c-0.4763031,0.1891556-1.0619202,0.2848473-1.7570038,0.2848473
				c-0.9228973,0-1.7705536-0.1207962-2.5408173-0.3623161c-0.7701874-0.2415237-1.4515686-0.5742874-2.0417786-0.9980812
				c-0.59021-0.4238625-1.0733185-0.9069767-1.4515686-1.4516354c-0.3783112-0.54459-0.6198273-1.1256905-0.7246399-1.7478199
				c-0.091156,0.4717083-0.2689209,0.968523-0.5332489,1.4994812c-0.2666321,0.5286655-0.647171,1.0208893-1.1462097,1.4720821
				c-0.4990997,0.4534893-1.1257477,0.8317337-1.882309,1.1348019
				C176.9394531,32.6020203,176.0165558,32.7524414,174.9273071,32.7524414 M181.1210632,17.9859276
				c-0.2415924,0.3486881-0.4694824,0.6426468-0.6813812,0.8864632c-0.2119598,0.2415924-0.4215698,0.4580784-0.6335297,0.6449394
				c-0.2141876,0.1890869-0.4237976,0.3554344-0.6357574,0.5013351c-0.2118988,0.1435356-0.4397888,0.2825527-0.6813812,0.4169788
				c-0.7109375,0.3942375-1.3034363,0.9206066-1.7796783,1.576952c-0.4762878,0.6585712-0.7155151,1.5176334-0.7155151,2.5749626
				v3.7190113c0,0.5605831,0.0204468,1.0550327,0.0569458,1.4880066c0.0387421,0.4284534,0.1139221,0.793066,0.22789,1.0870247
				c0.1139221,0.2939568,0.2688599,0.5217781,0.4648285,0.6813107c0.1959686,0.1572361,0.4603119,0.2370014,0.7929993,0.2370014
				c0.5150299,0,0.991333-0.1504211,1.428833-0.4534893c0.4397888-0.3030663,0.8181-0.6767902,1.1347961-1.123394
				c0.3167572-0.4443779,0.5674591-0.9206772,0.7474365-1.4288273c0.1823425-0.5058537,0.2735138-0.963932,0.2735138-1.3695068
				V17.9859276z"/>
			<path class="st2" d="M174.9273071,32.7524414c-0.9502411,0-1.8093719-0.1458321-2.5727386-0.4420853
				c-0.7633667-0.2939568-1.4151306-0.6995983-1.9506073-1.2122688c-0.5378418-0.5150337-0.9503021-1.1234646-1.2373657-1.8253593
				c-0.2871552-0.7041206-0.4307556-1.4629726-0.4307556-2.281004c0-0.9069786,0.1618195-1.727375,0.4877014-2.4611206
				c0.325882-0.731451,0.7610779-1.3740978,1.3034363-1.927866c0.5446625-0.551405,1.1690216-1.0048943,1.8731384-1.3603973
				c0.7019043-0.3577976,1.4311218-0.6084309,2.1876831-0.7588501c0.5582886-0.1070976,1.0162964-0.182272,1.3740997-0.2278919
				c0.3532104-0.0432568,0.6630859-0.0796967,0.929718-0.1025066c0.264328-0.02281,0.5081482-0.0433254,0.7360382-0.0683613
				c0.22789-0.02281,0.4990387-0.0774708,0.8158112-0.1686401c0.5446472-0.152647,1.0299988-0.4443798,1.4515686-0.8750572
				c0.417038-0.4238644,0.8181-0.9000931,1.2032166-1.4310532c0.0159302-0.0205154,0.0228119-0.04562,0.0228119-0.0660648
				v-4.4550524c0-1.3467665-0.3144684-2.3175144-0.9411926-2.9168348c-0.6289368-0.5947304-1.5859833-0.8955717-2.868988-0.8955717
				c-0.6676788,0-1.3421783,0.0911703-2.030365,0.2734423c-0.6882019,0.1800461-1.3353577,0.4329729-1.939209,0.7588511
				c-0.6062012,0.3235826-1.1462708,0.7110052-1.6224976,1.1576099c-0.4763031,0.4466734-0.8431396,0.9251976-1.1006622,1.4402313
				c0.3486176-0.4991083,0.7953033-0.8910522,1.3398895-1.1804199c0.5423584-0.2871418,1.1325684-0.4306784,1.7683258-0.4306784
				c0.5287476,0,1.0277863,0.1025057,1.4971924,0.3053627c0.4671173,0.205081,0.8773499,0.4808187,1.2236786,0.8294373
				c0.3486938,0.3486872,0.6244202,0.7565556,0.8295135,1.2259703c0.202774,0.4694834,0.3053589,0.9662275,0.3053589,1.4971867
				c0,0.52637-0.1025848,1.0277033-0.3053589,1.4948931c-0.2050934,0.4694138-0.4808197,0.8772831-0.8295135,1.2259693
				c-0.3463287,0.3486195-0.7565613,0.6243553-1.2236786,0.8249168c-0.4694061,0.2050819-0.9684448,0.3076572-1.4971924,0.3076572
				c-0.6357574,0-1.194046-0.1139793-1.6794586-0.3395767c-0.4830322-0.2278919-0.8841553-0.5332546-1.2008514-0.9183121
				c-0.3190765-0.385128-0.5605927-0.8318024-0.726944-1.337656c-0.1663361-0.5081501-0.2483978-1.0345898-0.2483978-1.5769539
				c0-0.906908,0.2575073-1.729599,0.7701874-2.461051c0.5150299-0.7337456,1.1598969-1.3581705,1.93927-1.8709097
				c0.7793579-0.5149651,1.6361237-0.9092035,2.5750275-1.1803503c0.9365997-0.2712173,1.8298798-0.407938,2.677536-0.407938
				c1.6772308,0,3.1698303,0.193676,4.4777985,0.5765095c1.3080292,0.3874235,2.413269,0.9320822,3.3133698,1.6339083
				c0.8978577,0.7041216,1.5837555,1.547328,2.0531769,2.5317068c0.4671173,0.9821529,0.701889,2.0714016,0.701889,3.265521
				v11.8404999c0,0.9388981,0.1503601,1.6156883,0.4534302,2.0395508c0.3031311,0.4260902,0.7269287,0.6357613,1.2692871,0.6357613
				c0.5309601,0,0.9274902-0.193676,1.1918335-0.578804c0.264328-0.385128,0.4580078-0.8704681,0.5787964-1.4629726h0.2256012
				c-0.0751801,0.4238625-0.2027893,0.8363209-0.3851318,1.2373753c-0.1800385,0.4010525-0.4306793,0.7588501-0.7474365,1.0755482
				c-0.3190002,0.3190632-0.7155304,0.5719891-1.1917572,0.758852c-0.4763031,0.1891556-1.0619202,0.2848473-1.7570038,0.2848473
				c-0.9228973,0-1.7705536-0.1207962-2.5408173-0.3623161c-0.7701874-0.2415237-1.4515686-0.5742874-2.0417786-0.9980812
				c-0.59021-0.4238625-1.0733185-0.9069767-1.4515686-1.4516354c-0.3783112-0.54459-0.6198273-1.1256905-0.7246399-1.7478199
				c-0.091156,0.4717083-0.2689209,0.968523-0.5332489,1.4994812c-0.2666321,0.5286655-0.647171,1.0208893-1.1462097,1.4720821
				c-0.4990997,0.4534893-1.1257477,0.8317337-1.882309,1.1348019
				C176.9394531,32.6020203,176.0165558,32.7524414,174.9273071,32.7524414 M181.1210632,17.9859276
				c-0.2415924,0.3486881-0.4694824,0.6426468-0.6813812,0.8864632c-0.2119598,0.2415924-0.4215698,0.4580784-0.6335297,0.6449394
				c-0.2141876,0.1890869-0.4237976,0.3554344-0.6357574,0.5013351c-0.2118988,0.1435356-0.4397888,0.2825527-0.6813812,0.4169788
				c-0.7109375,0.3942375-1.3034363,0.9206066-1.7796783,1.576952c-0.4762878,0.6585712-0.7155151,1.5176334-0.7155151,2.5749626
				v3.7190113c0,0.5605831,0.0204468,1.0550327,0.0569458,1.4880066c0.0387421,0.4284534,0.1139221,0.793066,0.22789,1.0870247
				c0.1139221,0.2939568,0.2688599,0.5217781,0.4648285,0.6813107c0.1959686,0.1572361,0.4603119,0.2370014,0.7929993,0.2370014
				c0.5150299,0,0.991333-0.1504211,1.428833-0.4534893c0.4397888-0.3030663,0.8181-0.6767902,1.1347961-1.123394
				c0.3167572-0.4443779,0.5674591-0.9206772,0.7474365-1.4288273c0.1823425-0.5058537,0.2735138-0.963932,0.2735138-1.3695068
				V17.9859276z"/>
			<path class="st2" d="M200.7814484,9.707551c-0.0592499,0-0.1093903,0.0479155-0.1093903,0.1093912v19.1235104
				c0,0.6380539,0.129837,1.1667881,0.3873596,1.5905819c0.2552185,0.4238644,0.6562653,0.6335354,1.2009277,0.6335354
				c0.3326874,0,0.6016083-0.0934658,0.8043976-0.2825527c0.2050934-0.1891556,0.364624-0.432972,0.4763031-0.7360401
				c0.1139069-0.3030682,0.1890869-0.6403503,0.227829-1.0117779c0.036499-0.3692036,0.0570221-0.736042,0.0570221-1.0983601
				v-4.8994312h0.2483368v5.170578c0,0.6653862-0.0706635,1.2715206-0.2141876,1.8161812
				c-0.1435394,0.5423641-0.382843,1.0071888-0.7155304,1.3923168c-0.3327026,0.3874226-0.7702637,0.6904907-1.3148499,0.9092712
				c-0.5446625,0.2164879-1.2168579,0.3281021-2.019043,0.3281021c-1.0892487,0-2.0326538-0.1686401-2.8347626-0.5081482
				c-0.8021088-0.3418026-1.4675598-0.8272114-1.9962311-1.4538612c-0.5309601-0.6266518-0.9228973-1.3809128-1.1804199-2.267374
				c-0.2574463-0.8864632-0.3850555-1.864027-0.3850555-2.9373493V9.8169422c0-0.0614758-0.0501404-0.1093912-0.1093903-0.1093912
				h-3.4751892V9.4797287h1.1804199c1.3308258,0,2.5705109-0.205081,3.7190094-0.6221294
				c1.1507874-0.4170485,2.1488647-1.0277038,2.9942932-1.8389902c0.8477325-0.8066969,1.5131226-1.7979603,1.9962311-2.9692001
				C200.2048645,2.878099,200.4464569,1.5267431,200.4464569,0h0.2256012v9.372633
				c0,0.0592508,0.0501404,0.1070957,0.1093903,0.1070957h4.3820343V9.707551H200.7814484z"/>
			<path class="st2" d="M200.7814484,9.707551c-0.0592499,0-0.1093903,0.0479155-0.1093903,0.1093912v19.1235104
				c0,0.6380539,0.129837,1.1667881,0.3873596,1.5905819c0.2552185,0.4238644,0.6562653,0.6335354,1.2009277,0.6335354
				c0.3326874,0,0.6016083-0.0934658,0.8043976-0.2825527c0.2050934-0.1891556,0.364624-0.432972,0.4763031-0.7360401
				c0.1139069-0.3030682,0.1890869-0.6403503,0.227829-1.0117779c0.036499-0.3692036,0.0570221-0.736042,0.0570221-1.0983601
				v-4.8994312h0.2483368v5.170578c0,0.6653862-0.0706635,1.2715206-0.2141876,1.8161812
				c-0.1435394,0.5423641-0.382843,1.0071888-0.7155304,1.3923168c-0.3327026,0.3874226-0.7702637,0.6904907-1.3148499,0.9092712
				c-0.5446625,0.2164879-1.2168579,0.3281021-2.019043,0.3281021c-1.0892487,0-2.0326538-0.1686401-2.8347626-0.5081482
				c-0.8021088-0.3418026-1.4675598-0.8272114-1.9962311-1.4538612c-0.5309601-0.6266518-0.9228973-1.3809128-1.1804199-2.267374
				c-0.2574463-0.8864632-0.3850555-1.864027-0.3850555-2.9373493V9.8169422c0-0.0614758-0.0501404-0.1093912-0.1093903-0.1093912
				h-3.4751892V9.4797287h1.1804199c1.3308258,0,2.5705109-0.205081,3.7190094-0.6221294
				c1.1507874-0.4170485,2.1488647-1.0277038,2.9942932-1.8389902c0.8477325-0.8066969,1.5131226-1.7979603,1.9962311-2.9692001
				C200.2048645,2.878099,200.4464569,1.5267431,200.4464569,0h0.2256012v9.372633
				c0,0.0592508,0.0501404,0.1070957,0.1093903,0.1070957h4.3820343V9.707551H200.7814484z"/>
			<path class="st2" d="M213.8411713,9.707551c-0.0592499,0-0.1093903,0.0479155-0.1093903,0.1093912v19.1235104
				c0,0.6380539,0.129837,1.1667881,0.3873596,1.5905819c0.2552185,0.4238644,0.6562653,0.6335354,1.2009277,0.6335354
				c0.3326874,0,0.6016235-0.0934658,0.8043976-0.2825527c0.2050934-0.1891556,0.364624-0.432972,0.4763031-0.7360401
				c0.1139069-0.3030682,0.1890869-0.6403503,0.227829-1.0117779c0.036499-0.3692036,0.0570221-0.736042,0.0570221-1.0983601
				v-4.8994312h0.2483368v5.170578c0,0.6653862-0.0706635,1.2715206-0.2141876,1.8161812
				c-0.1435394,0.5423641-0.382843,1.0071888-0.7155304,1.3923168c-0.3326874,0.3874226-0.7702637,0.6904907-1.3148499,0.9092712
				c-0.5446625,0.2164879-1.2168579,0.3281021-2.0190277,0.3281021c-1.0892487,0-2.0326691-0.1686401-2.8347778-0.5081482
				c-0.8021088-0.3418026-1.4675598-0.8272114-1.9962311-1.4538612c-0.5309601-0.6266518-0.9228973-1.3809128-1.1804199-2.267374
				c-0.2574463-0.8864632-0.3850555-1.864027-0.3850555-2.9373493V9.8169422c0-0.0614758-0.0479126-0.1093912-0.1093903-0.1093912
				h-3.4751892V9.4797287h1.1804199c1.3308411,0,2.5705109-0.205081,3.7190094-0.6221294
				c1.1507874-0.4170485,2.1488647-1.0277038,2.9942932-1.8389902c0.8477325-0.8066969,1.5131226-1.7979603,1.9962311-2.9692001
				C213.2645874,2.878099,213.5061798,1.5267431,213.5061798,0h0.2256012v9.372633
				c0,0.0592508,0.0501404,0.1070957,0.1093903,0.1070957h4.3820343V9.707551H213.8411713z"/>
			<path class="st2" d="M213.8411713,9.707551c-0.0592499,0-0.1093903,0.0479155-0.1093903,0.1093912v19.1235104
				c0,0.6380539,0.129837,1.1667881,0.3873596,1.5905819c0.2552185,0.4238644,0.6562653,0.6335354,1.2009277,0.6335354
				c0.3326874,0,0.6016235-0.0934658,0.8043976-0.2825527c0.2050934-0.1891556,0.364624-0.432972,0.4763031-0.7360401
				c0.1139069-0.3030682,0.1890869-0.6403503,0.227829-1.0117779c0.036499-0.3692036,0.0570221-0.736042,0.0570221-1.0983601
				v-4.8994312h0.2483368v5.170578c0,0.6653862-0.0706635,1.2715206-0.2141876,1.8161812
				c-0.1435394,0.5423641-0.382843,1.0071888-0.7155304,1.3923168c-0.3326874,0.3874226-0.7702637,0.6904907-1.3148499,0.9092712
				c-0.5446625,0.2164879-1.2168579,0.3281021-2.0190277,0.3281021c-1.0892487,0-2.0326691-0.1686401-2.8347778-0.5081482
				c-0.8021088-0.3418026-1.4675598-0.8272114-1.9962311-1.4538612c-0.5309601-0.6266518-0.9228973-1.3809128-1.1804199-2.267374
				c-0.2574463-0.8864632-0.3850555-1.864027-0.3850555-2.9373493V9.8169422c0-0.0614758-0.0479126-0.1093912-0.1093903-0.1093912
				h-3.4751892V9.4797287h1.1804199c1.3308411,0,2.5705109-0.205081,3.7190094-0.6221294
				c1.1507874-0.4170485,2.1488647-1.0277038,2.9942932-1.8389902c0.8477325-0.8066969,1.5131226-1.7979603,1.9962311-2.9692001
				C213.2645874,2.878099,213.5061798,1.5267431,213.5061798,0h0.2256012v9.372633
				c0,0.0592508,0.0501404,0.1070957,0.1093903,0.1070957h4.3820343V9.707551H213.8411713z"/>
			<path class="st2" d="M225.7256165,20.776125c-0.0592499,0-0.1093903,0.0500717-0.1093903,0.1093216v1.0254784
				c0,1.5746574,0.0387421,2.9760857,0.1139221,4.2089405c0.0752411,1.2304897,0.2757263,2.2787781,0.6016083,3.1401367
				c0.325882,0.8636513,0.8204041,1.5199261,1.4857788,1.9734154c0.66539,0.4534893,1.5791779,0.6813812,2.7436066,0.6813812
				c0.9844513,0,1.902832-0.1709366,2.75737-0.5104446c0.8545532-0.3395786,1.6225128-0.8409119,2.3015289-1.4971867
				c0.6813812-0.6585712,1.2692871-1.4675636,1.7683258-2.4269066c0.499115-0.959343,0.8864594-2.0622921,1.1576843-3.3019619
				h0.2278137c-0.3030548,1.3308411-0.7269287,2.5271854-1.2715149,3.5845146
				c-0.5446625,1.0573997-1.2237396,1.9597874-2.0395508,2.698122c-0.8180389,0.7405624-1.7774506,1.3079624-2.8826141,1.7021999
				c-1.102951,0.3942375-2.3653717,0.59021-3.7873077,0.59021c-0.9525909,0-1.8868408-0.1458321-2.8006287-0.4420853
				c-0.9160919-0.2939568-1.7774506-0.7064152-2.586441-1.2373734c-0.8089905-0.5286655-1.5541382-1.162199-2.2332306-1.9027615
				c-0.6813049-0.7406311-1.2669983-1.5564384-1.7592163-2.4406052c-0.492157-0.8841667-0.872757-1.8252907-1.1439056-2.8233681
				c-0.2734528-0.998148-0.4101715-2.0258522-0.4101715-3.0831814c0-1.0596237,0.1367188-2.0873966,0.4101715-3.0877705
				c0.2711487-0.9958534,0.6517487-1.9369764,1.1439056-2.823369c0.492218-0.8841677,1.0779114-1.6954536,1.7592163-2.4383106
				c0.6790924-0.7406311,1.4242401-1.3763914,2.2332306-1.9028301c0.8089905-0.5308905,1.6680603-0.9433489,2.5750427-1.2373753
				c0.9069061-0.2961826,1.8435059-0.4443092,2.812027-0.4443092c1.4674988,0,2.8392944,0.3189926,4.1177063,0.952528
				c1.2761078,0.6380548,2.3813477,1.497118,3.3110657,2.5750313c0.9297943,1.0823641,1.6635284,2.3448448,2.1990204,3.7873011
				c0.5241394,1.4105377,0.7930603,2.8986149,0.8043976,4.4595737c0.0022888,0.0615444-0.0500793,0.1116848-0.1093292,0.1116848
				H225.7256165z M228.7928772,9.1178284c-0.7406311,0-1.3240204,0.209672-1.7478943,0.6221304
				c-0.4215698,0.4192734-0.7405548,1.0003729-0.9525299,1.7478189c-0.2118835,0.7497416-0.3417969,1.6498337-0.394165,2.7003479
				c-0.0547333,1.0528088-0.0820618,2.2173023-0.0820618,3.5047493v2.7482624c0,0.0614758,0.0501404,0.1093903,0.1093903,0.1093903
				h5.6787262c0.0614777,0,0.1093292-0.0524349,0.1093292-0.1116848c0-2.4132061-0.0341492-4.3592911-0.1002197-5.8427792
				c-0.0683594-1.5062971-0.2005615-2.6616125-0.3965302-3.4706039c-0.1982574-0.8089914-0.473999-1.3467665-0.8294373-1.6088037
				C229.8319855,9.2523241,229.3670959,9.1178284,228.7928772,9.1178284"/>
			<path class="st2" d="M225.7256165,20.776125c-0.0592499,0-0.1093903,0.0500717-0.1093903,0.1093216v1.0254784
				c0,1.5746574,0.0387421,2.9760857,0.1139221,4.2089405c0.0752411,1.2304897,0.2757263,2.2787781,0.6016083,3.1401367
				c0.325882,0.8636513,0.8204041,1.5199261,1.4857788,1.9734154c0.66539,0.4534893,1.5791779,0.6813812,2.7436066,0.6813812
				c0.9844513,0,1.902832-0.1709366,2.75737-0.5104446c0.8545532-0.3395786,1.6225128-0.8409119,2.3015289-1.4971867
				c0.6813812-0.6585712,1.2692871-1.4675636,1.7683258-2.4269066c0.499115-0.959343,0.8864594-2.0622921,1.1576843-3.3019619
				h0.2278137c-0.3030548,1.3308411-0.7269287,2.5271854-1.2715149,3.5845146
				c-0.5446625,1.0573997-1.2237396,1.9597874-2.0395508,2.698122c-0.8180389,0.7405624-1.7774506,1.3079624-2.8826141,1.7021999
				c-1.102951,0.3942375-2.3653717,0.59021-3.7873077,0.59021c-0.9525909,0-1.8868408-0.1458321-2.8006287-0.4420853
				c-0.9160919-0.2939568-1.7774506-0.7064152-2.586441-1.2373734c-0.8089905-0.5286655-1.5541382-1.162199-2.2332306-1.9027615
				c-0.6813049-0.7406311-1.2669983-1.5564384-1.7592163-2.4406052c-0.492157-0.8841667-0.872757-1.8252907-1.1439056-2.8233681
				c-0.2734528-0.998148-0.4101715-2.0258522-0.4101715-3.0831814c0-1.0596237,0.1367188-2.0873966,0.4101715-3.0877705
				c0.2711487-0.9958534,0.6517487-1.9369764,1.1439056-2.823369c0.492218-0.8841677,1.0779114-1.6954536,1.7592163-2.4383106
				c0.6790924-0.7406311,1.4242401-1.3763914,2.2332306-1.9028301c0.8089905-0.5308905,1.6680603-0.9433489,2.5750427-1.2373753
				c0.9069061-0.2961826,1.8435059-0.4443092,2.812027-0.4443092c1.4674988,0,2.8392944,0.3189926,4.1177063,0.952528
				c1.2761078,0.6380548,2.3813477,1.497118,3.3110657,2.5750313c0.9297943,1.0823641,1.6635284,2.3448448,2.1990204,3.7873011
				c0.5241394,1.4105377,0.7930603,2.8986149,0.8043976,4.4595737c0.0022888,0.0615444-0.0500793,0.1116848-0.1093292,0.1116848
				H225.7256165z M228.7928772,9.1178284c-0.7406311,0-1.3240204,0.209672-1.7478943,0.6221304
				c-0.4215698,0.4192734-0.7405548,1.0003729-0.9525299,1.7478189c-0.2118835,0.7497416-0.3417969,1.6498337-0.394165,2.7003479
				c-0.0547333,1.0528088-0.0820618,2.2173023-0.0820618,3.5047493v2.7482624c0,0.0614758,0.0501404,0.1093903,0.1093903,0.1093903
				h5.6787262c0.0614777,0,0.1093292-0.0524349,0.1093292-0.1116848c0-2.4132061-0.0341492-4.3592911-0.1002197-5.8427792
				c-0.0683594-1.5062971-0.2005615-2.6616125-0.3965302-3.4706039c-0.1982574-0.8089914-0.473999-1.3467665-0.8294373-1.6088037
				C229.8319855,9.2523241,229.3670959,9.1178284,228.7928772,9.1178284"/>
			<path class="st2" d="M255.1501617,10.3884449c0.756485,0,1.4219513,0.1937466,1.99617,0.5788746
				c0.5742798,0.3850584,1.027771,0.8886881,1.3604431,1.508523c-0.1367188-0.4261589-0.3372803-0.8317327-0.601593-1.2259703
				c-0.2643433-0.3919439-0.5925293-0.7406311-0.9867554-1.0436993c-0.3919373-0.3007727-0.8431396-0.5423641-1.3489838-0.7246361
				c-0.5059357-0.1823406-1.0619202-0.2734423-1.6680603-0.2734423c-0.5583649,0-1.0528107,0.0683613-1.48349,0.2050819
				c-0.4306793,0.1367216-0.8181,0.3212881-1.157608,0.5537004c-0.3418732,0.2370014-0.6472321,0.5127392-0.9183807,0.8295059
				c-0.264328,0.3076582-0.5150299,0.6312408-0.7519684,0.9684534c-0.0137024,0.0182896-0.0205078,0.0410309-0.0205078,0.0661354
				v19.996273c0,0.0615463,0.0501404,0.1093903,0.1093903,0.1093903h3.5206604v0.2278214H238.68367v-0.2278214h3.5184479
				c0.0592499,0,0.1093903-0.0478439,0.1093903-0.1093903V9.8165245c0-0.0592499-0.0501404-0.1093903-0.1093903-0.1093903H238.68367
				V9.4815369h10.7763519c0.061554,0,0.1094055,0.0478458,0.1094055,0.1070967v1.7956648
				c0.2278137-0.3303976,0.4808044-0.6403503,0.7610626-0.929718c0.2780457-0.2848473,0.5970306-0.537775,0.9525299-0.7588511
				c0.3532104-0.2164869,0.7520447-0.3942385,1.1895294-0.5218496c0.4397888-0.1276112,0.9389038-0.1913815,1.4971924-0.1913815
				c0.4238586,0,0.875061,0.0592499,1.348999,0.182272c0.4762878,0.1207952,0.9434052,0.3212872,1.3968964,0.5993195
				c0.4534912,0.2825527,0.8613586,0.6517553,1.2237549,1.1120596c0.3645325,0.4603033,0.6425781,1.0231829,0.8408203,1.6885691
				c0.0888977,0.3189926,0.1504211,0.5833941,0.1800537,0.7952909c0.0318604,0.209672,0.0455627,0.3987589,0.0455627,0.5674
				c0,0.5446596-0.0820618,1.0687342-0.2484131,1.5746584c-0.1663513,0.5081501-0.4101562,0.9548225-0.7269287,1.3398819
				c-0.3167114,0.385128-0.7178345,0.6927853-1.2031555,0.9183826c-0.4831238,0.2255955-1.0414124,0.3418026-1.6771698,0.3418026
				c-0.5309601,0-1.027771-0.1025066-1.4971924-0.3076572c-0.4694061-0.2050819-0.8773499-0.4808197-1.2236633-0.8271427
				c-0.3486938-0.3486881-0.6244354-0.7565556-0.8295135-1.2237453c-0.2027893-0.4694138-0.3053589-0.9684534-0.3053589-1.4994125
				c0-0.5286646,0.1025696-1.0277033,0.3053589-1.4971867c0.2050781-0.4671192,0.4808197-0.8772831,0.8295135-1.2236757
				c0.3463135-0.3486881,0.7542572-0.6243553,1.2236633-0.8295069
				C254.1223907,10.4910212,254.6192017,10.3884449,255.1501617,10.3884449"/>
			<path class="st2" d="M255.1501617,10.3884449c0.756485,0,1.4219513,0.1937466,1.99617,0.5788746
				c0.5742798,0.3850584,1.027771,0.8886881,1.3604431,1.508523c-0.1367188-0.4261589-0.3372803-0.8317327-0.601593-1.2259703
				c-0.2643433-0.3919439-0.5925293-0.7406311-0.9867554-1.0436993c-0.3919373-0.3007727-0.8431396-0.5423641-1.3489838-0.7246361
				c-0.5059357-0.1823406-1.0619202-0.2734423-1.6680603-0.2734423c-0.5583649,0-1.0528107,0.0683613-1.48349,0.2050819
				c-0.4306793,0.1367216-0.8181,0.3212881-1.157608,0.5537004c-0.3418732,0.2370014-0.6472321,0.5127392-0.9183807,0.8295059
				c-0.264328,0.3076582-0.5150299,0.6312408-0.7519684,0.9684534c-0.0137024,0.0182896-0.0205078,0.0410309-0.0205078,0.0661354
				v19.996273c0,0.0615463,0.0501404,0.1093903,0.1093903,0.1093903h3.5206604v0.2278214H238.68367v-0.2278214h3.5184479
				c0.0592499,0,0.1093903-0.0478439,0.1093903-0.1093903V9.8165245c0-0.0592499-0.0501404-0.1093903-0.1093903-0.1093903H238.68367
				V9.4815369h10.7763519c0.061554,0,0.1094055,0.0478458,0.1094055,0.1070967v1.7956648
				c0.2278137-0.3303976,0.4808044-0.6403503,0.7610626-0.929718c0.2780457-0.2848473,0.5970306-0.537775,0.9525299-0.7588511
				c0.3532104-0.2164869,0.7520447-0.3942385,1.1895294-0.5218496c0.4397888-0.1276112,0.9389038-0.1913815,1.4971924-0.1913815
				c0.4238586,0,0.875061,0.0592499,1.348999,0.182272c0.4762878,0.1207952,0.9434052,0.3212872,1.3968964,0.5993195
				c0.4534912,0.2825527,0.8613586,0.6517553,1.2237549,1.1120596c0.3645325,0.4603033,0.6425781,1.0231829,0.8408203,1.6885691
				c0.0888977,0.3189926,0.1504211,0.5833941,0.1800537,0.7952909c0.0318604,0.209672,0.0455627,0.3987589,0.0455627,0.5674
				c0,0.5446596-0.0820618,1.0687342-0.2484131,1.5746584c-0.1663513,0.5081501-0.4101562,0.9548225-0.7269287,1.3398819
				c-0.3167114,0.385128-0.7178345,0.6927853-1.2031555,0.9183826c-0.4831238,0.2255955-1.0414124,0.3418026-1.6771698,0.3418026
				c-0.5309601,0-1.027771-0.1025066-1.4971924-0.3076572c-0.4694061-0.2050819-0.8773499-0.4808197-1.2236633-0.8271427
				c-0.3486938-0.3486881-0.6244354-0.7565556-0.8295135-1.2237453c-0.2027893-0.4694138-0.3053589-0.9684534-0.3053589-1.4994125
				c0-0.5286646,0.1025696-1.0277033,0.3053589-1.4971867c0.2050781-0.4671192,0.4808197-0.8772831,0.8295135-1.2236757
				c0.3463135-0.3486881,0.7542572-0.6243553,1.2236633-0.8295069
				C254.1223907,10.4910212,254.6192017,10.3884449,255.1501617,10.3884449"/>
		</g>
	</g>
</g>
<g id="capitols">
</g>
</svg>
