<?xml version="1.0" encoding="utf-8"?>
<!-- Generator: Adobe Illustrator 24.0.1, SVG Export Plug-In . SVG Version: 6.00 Build 0)  -->
<svg version="1.0" xmlns="http://www.w3.org/2000/svg" xmlns:xlink="http://www.w3.org/1999/xlink" x="0px" y="0px"
	 viewBox="0 0 233.2621765 38.9756927" style="enable-background:new 0 0 233.2621765 38.9756927;" xml:space="preserve">
<style type="text/css">
	.st0{fill:#58595B;}
	.st1{fill:#D3D1CC;}
	.st2{fill:#59595B;}
</style>
<g id="names">
	<g>
		<path class="st1" d="M25.290266,21.4083538c0,0.995327-0.1764927,1.9496937-0.5315475,2.8609066
			c-0.35499,0.9112148-0.9563065,1.7157059-1.8080215,2.4093399c-0.8517151,0.6957645-1.9845772,1.2498569-3.4006577,1.6644096
			c-1.4160786,0.4145527-3.1810112,0.6239262-5.2907887,0.6239262H0v-0.2052402h3.4971089
			c0.0533614,0,0.0985181-0.0430889,0.0985181-0.0964508V0.670023c0-0.0533614-0.0451567-0.0985181-0.0985181-0.0985181H0V0.3663268
			h12.256259c1.4571028,0,2.8465014,0.1210651,4.1681967,0.3591243c1.3195648,0.2380592,2.4811764,0.6218599,3.4827042,1.1534065
			s1.7936802,1.2293148,2.3806534,2.0933049c0.5849094,0.8660572,0.878397,1.9250166,0.878397,3.1769412
			c0,0.9543033-0.1642189,1.7772708-0.4905243,2.4709678c-0.328373,0.6957016-0.7429256,1.2888136-1.2457237,1.7772703
			c-0.5048656,0.492528-1.0528221,0.8906708-1.6459351,1.1944304c-0.5910454,0.3078289-1.1616096,0.5458889-1.7054329,0.7162437
			c-0.5438843,0.1702929-1.0179367,0.2872868-1.4202137,0.3467865c-0.4002094,0.0616283-0.656744,0.100585-0.7654715,0.1149273
			c0.1087275,0,0.4145517,0.0226097,0.9194193,0.0698328c0.5048656,0.0471611,1.1041145,0.1559505,1.7978134,0.3263063
			c0.693634,0.1723595,1.4324875,0.4227562,2.2164364,0.7552004c0.7819443,0.3345728,1.5043259,0.7840109,2.1651421,1.3483763
			c0.6608791,0.566431,1.2088356,1.2683334,1.6438675,2.1056423C25.0706825,19.2123966,25.290266,20.2221298,25.290266,21.4083538
			 M17.1180897,7.1491036c0-0.9789176-0.0943832-1.8244944-0.2852821-2.5325341
			c-0.190836-0.7080398-0.439167-1.3031564-0.7449284-1.7875421c-0.3078928-0.4843228-0.6546793-0.8742615-1.042551-1.1759534
			c-0.3879347-0.2975583-0.7901487-0.5253462-1.2047005-0.683426c-0.4166193-0.1559504-0.8209009-0.262673-1.2170401-0.3160344
			c-0.3940096-0.0533613-0.7469959-0.0821088-1.0610256-0.0821088h-1.0055981c-0.0533619,0-0.0985184,0.0451567-0.0985184,0.0985181
			v12.8575764c0,0.0533609,0.0451565,0.0964508,0.0985184,0.0964508h1.535078c0.6690826,0,1.3052855-0.0779753,1.9106731-0.2339878
			c0.6075182-0.1559505,1.1410685-0.4679136,1.6049118-0.9398985c0.4617758-0.4679136,0.8291044-1.1267262,1.1020498-1.9722404
			C16.9826832,9.6344137,17.1180897,8.5261641,17.1180897,7.1491036 M18.5485744,21.6956406
			c0-1.6746178-0.1498737-3.0291328-0.4494991-4.0573406s-0.7285213-1.8224268-1.286747-2.3909254
			c-0.5582275-0.5622978-1.2355165-0.9419651-2.0318022-1.1307964c-0.7982912-0.190836-1.6930952-0.2872868-2.6884842-0.2872868
			h-1.535078c-0.0533619,0-0.0985184,0.0430899-0.0985184,0.0985174v14.7374363
			c0,0.0533619,0.0451565,0.0964508,0.0985184,0.0964508h2.3949966c0.6115885,0,1.2477913-0.0779743,1.9086075-0.2339878
			c0.6608782-0.1559505,1.2641993-0.4802513,1.8080854-0.9707127c0.5458889-0.4905243,0.9953251-1.2005672,1.3483753-2.1343899
			C18.3720188,24.4888439,18.5485744,23.2471905,18.5485744,21.6956406"/>
		<path class="st1" d="M25.290266,21.4083538c0,0.995327-0.1764927,1.9496937-0.5315475,2.8609066
			c-0.35499,0.9112148-0.9563065,1.7157059-1.8080215,2.4093399c-0.8517151,0.6957645-1.9845772,1.2498569-3.4006577,1.6644096
			c-1.4160786,0.4145527-3.1810112,0.6239262-5.2907887,0.6239262H0v-0.2052402h3.4971089
			c0.0533614,0,0.0985181-0.0430889,0.0985181-0.0964508V0.670023c0-0.0533614-0.0451567-0.0985181-0.0985181-0.0985181H0V0.3663268
			h12.256259c1.4571028,0,2.8465014,0.1210651,4.1681967,0.3591243c1.3195648,0.2380592,2.4811764,0.6218599,3.4827042,1.1534065
			s1.7936802,1.2293148,2.3806534,2.0933049c0.5849094,0.8660572,0.878397,1.9250166,0.878397,3.1769412
			c0,0.9543033-0.1642189,1.7772708-0.4905243,2.4709678c-0.328373,0.6957016-0.7429256,1.2888136-1.2457237,1.7772703
			c-0.5048656,0.492528-1.0528221,0.8906708-1.6459351,1.1944304c-0.5910454,0.3078289-1.1616096,0.5458889-1.7054329,0.7162437
			c-0.5438843,0.1702929-1.0179367,0.2872868-1.4202137,0.3467865c-0.4002094,0.0616283-0.656744,0.100585-0.7654715,0.1149273
			c0.1087275,0,0.4145517,0.0226097,0.9194193,0.0698328c0.5048656,0.0471611,1.1041145,0.1559505,1.7978134,0.3263063
			c0.693634,0.1723595,1.4324875,0.4227562,2.2164364,0.7552004c0.7819443,0.3345728,1.5043259,0.7840109,2.1651421,1.3483763
			c0.6608791,0.566431,1.2088356,1.2683334,1.6438675,2.1056423C25.0706825,19.2123966,25.290266,20.2221298,25.290266,21.4083538
			 M17.1180897,7.1491036c0-0.9789176-0.0943832-1.8244944-0.2852821-2.5325341
			c-0.190836-0.7080398-0.439167-1.3031564-0.7449284-1.7875421c-0.3078928-0.4843228-0.6546793-0.8742615-1.042551-1.1759534
			c-0.3879347-0.2975583-0.7901487-0.5253462-1.2047005-0.683426c-0.4166193-0.1559504-0.8209009-0.262673-1.2170401-0.3160344
			c-0.3940096-0.0533613-0.7469959-0.0821088-1.0610256-0.0821088h-1.0055981c-0.0533619,0-0.0985184,0.0451567-0.0985184,0.0985181
			v12.8575764c0,0.0533609,0.0451565,0.0964508,0.0985184,0.0964508h1.535078c0.6690826,0,1.3052855-0.0779753,1.9106731-0.2339878
			c0.6075182-0.1559505,1.1410685-0.4679136,1.6049118-0.9398985c0.4617758-0.4679136,0.8291044-1.1267262,1.1020498-1.9722404
			C16.9826832,9.6344137,17.1180897,8.5261641,17.1180897,7.1491036 M18.5485744,21.6956406
			c0-1.6746178-0.1498737-3.0291328-0.4494991-4.0573406s-0.7285213-1.8224268-1.286747-2.3909254
			c-0.5582275-0.5622978-1.2355165-0.9419651-2.0318022-1.1307964c-0.7982912-0.190836-1.6930952-0.2872868-2.6884842-0.2872868
			h-1.535078c-0.0533619,0-0.0985184,0.0430899-0.0985184,0.0985174v14.7374363
			c0,0.0533619,0.0451565,0.0964508,0.0985184,0.0964508h2.3949966c0.6115885,0,1.2477913-0.0779743,1.9086075-0.2339878
			c0.6608782-0.1559505,1.2641993-0.4802513,1.8080854-0.9707127c0.5458889-0.4905243,0.9953251-1.2005672,1.3483753-2.1343899
			C18.3720188,24.4888439,18.5485744,23.2471905,18.5485744,21.6956406"/>
		<path class="st1" d="M34.2943039,18.7111015c-0.0533638,0-0.0985184,0.0450935-0.0985184,0.0984554v0.9235516
			c0,1.4181461,0.0348854,2.6802807,0.1025887,3.790596c0.0677643,1.1081886,0.2483292,2.0522823,0.5418167,2.8280258
			c0.2934875,0.7778111,0.7388535,1.3688564,1.3381042,1.7772713s1.4222183,0.6136551,2.4709053,0.6136551
			c0.8866005,0,1.7136993-0.1539459,2.4833069-0.4597092c0.7696037-0.3058262,1.461235-0.7573299,2.0727615-1.3483753
			c0.6136551-0.5931129,1.1431351-1.3216953,1.5925713-2.1856861c0.449501-0.8639908,0.7983551-1.8573132,1.042614-2.9737663
			h0.2051773c-0.2729416,1.1985626-0.6546783,2.2759991-1.1451378,3.2282352
			c-0.4905243,0.9522991-1.1021118,1.7649956-1.836834,2.429945c-0.7367249,0.666954-1.6027794,1.1779575-2.5961037,1.5330105
			c-0.9933205,0.3550529-2.1302567,0.5315475-3.4108658,0.5315475c-0.857914,0-1.699295-0.1313381-2.5222626-0.3981438
			c-0.8250351-0.26474-1.6007767-0.6362019-2.329361-1.1143875c-0.7285805-0.4761181-1.3996696-1.0466843-2.0132618-1.7136383
			c-0.6115875-0.667017-1.1410675-1.4017372-1.5823631-2.1980228c-0.4432373-0.7962875-0.7860165-1.6438675-1.03228-2.5427437
			c-0.2441959-0.8989372-0.3673286-1.8244934-0.3673286-2.7767296c0-0.9543037,0.1231327-1.8799229,0.3673286-2.7808657
			c0.2462635-0.8968706,0.5890427-1.7444515,1.03228-2.5427427c0.4412956-0.7962856,0.9707756-1.5269356,1.5823631-2.1959562
			c0.6135921-0.667017,1.2846813-1.2395868,2.0132618-1.7137003c0.7285843-0.4781227,1.5001945-0.8495855,2.3190918-1.1143875
			c0.8167648-0.2667446,1.6602745-0.4001474,2.5325317-0.4001474c1.3195648,0,2.5570869,0.2872868,3.7084236,0.857852
			c1.1492729,0.5746365,2.1446648,1.3483133,2.9819717,2.3190889c0.8373718,0.9747839,1.498188,2.1117811,1.9804459,3.4108658
			c0.4720459,1.2703381,0.714241,2.6105089,0.7244492,4.0163183c0.0020676,0.0554276-0.0430908,0.100584-0.0984573,0.100584
			H34.2943039z M37.0566902,8.2115698c-0.6670151,0-1.1924248,0.1888323-1.5741577,0.5602942
			c-0.3796692,0.3776007-0.666954,0.9009428-0.8578529,1.5740967c-0.1908379,0.6752214-0.3078308,1.4858503-0.3570595,2.4319496
			c-0.0472221,0.9481659-0.0718346,1.9969158-0.0718346,3.1563978v2.4751024c0,0.0553646,0.0451546,0.0985165,0.0985184,0.0985165
			h5.1142921c0.0553665,0,0.0984573-0.0472221,0.0984573-0.100584c0-2.1733475-0.0307503-3.9260035-0.0923195-5.2620411
			c-0.0594978-1.3565807-0.1785583-2.3970642-0.3550529-3.1256466c-0.1785583-0.7285824-0.4268913-1.2129059-0.746994-1.4488983
			C37.9925194,8.3326979,37.5738335,8.2115698,37.0566902,8.2115698"/>
		<path class="st1" d="M34.2943039,18.7111015c-0.0533638,0-0.0985184,0.0450935-0.0985184,0.0984554v0.9235516
			c0,1.4181461,0.0348854,2.6802807,0.1025887,3.790596c0.0677643,1.1081886,0.2483292,2.0522823,0.5418167,2.8280258
			c0.2934875,0.7778111,0.7388535,1.3688564,1.3381042,1.7772713s1.4222183,0.6136551,2.4709053,0.6136551
			c0.8866005,0,1.7136993-0.1539459,2.4833069-0.4597092c0.7696037-0.3058262,1.461235-0.7573299,2.0727615-1.3483753
			c0.6136551-0.5931129,1.1431351-1.3216953,1.5925713-2.1856861c0.449501-0.8639908,0.7983551-1.8573132,1.042614-2.9737663
			h0.2051773c-0.2729416,1.1985626-0.6546783,2.2759991-1.1451378,3.2282352
			c-0.4905243,0.9522991-1.1021118,1.7649956-1.836834,2.429945c-0.7367249,0.666954-1.6027794,1.1779575-2.5961037,1.5330105
			c-0.9933205,0.3550529-2.1302567,0.5315475-3.4108658,0.5315475c-0.857914,0-1.699295-0.1313381-2.5222626-0.3981438
			c-0.8250351-0.26474-1.6007767-0.6362019-2.329361-1.1143875c-0.7285805-0.4761181-1.3996696-1.0466843-2.0132618-1.7136383
			c-0.6115875-0.667017-1.1410675-1.4017372-1.5823631-2.1980228c-0.4432373-0.7962875-0.7860165-1.6438675-1.03228-2.5427437
			c-0.2441959-0.8989372-0.3673286-1.8244934-0.3673286-2.7767296c0-0.9543037,0.1231327-1.8799229,0.3673286-2.7808657
			c0.2462635-0.8968706,0.5890427-1.7444515,1.03228-2.5427427c0.4412956-0.7962856,0.9707756-1.5269356,1.5823631-2.1959562
			c0.6135921-0.667017,1.2846813-1.2395868,2.0132618-1.7137003c0.7285843-0.4781227,1.5001945-0.8495855,2.3190918-1.1143875
			c0.8167648-0.2667446,1.6602745-0.4001474,2.5325317-0.4001474c1.3195648,0,2.5570869,0.2872868,3.7084236,0.857852
			c1.1492729,0.5746365,2.1446648,1.3483133,2.9819717,2.3190889c0.8373718,0.9747839,1.498188,2.1117811,1.9804459,3.4108658
			c0.4720459,1.2703381,0.714241,2.6105089,0.7244492,4.0163183c0.0020676,0.0554276-0.0430908,0.100584-0.0984573,0.100584
			H34.2943039z M37.0566902,8.2115698c-0.6670151,0-1.1924248,0.1888323-1.5741577,0.5602942
			c-0.3796692,0.3776007-0.666954,0.9009428-0.8578529,1.5740967c-0.1908379,0.6752214-0.3078308,1.4858503-0.3570595,2.4319496
			c-0.0472221,0.9481659-0.0718346,1.9969158-0.0718346,3.1563978v2.4751024c0,0.0553646,0.0451546,0.0985165,0.0985184,0.0985165
			h5.1142921c0.0553665,0,0.0984573-0.0472221,0.0984573-0.100584c0-2.1733475-0.0307503-3.9260035-0.0923195-5.2620411
			c-0.0594978-1.3565807-0.1785583-2.3970642-0.3550529-3.1256466c-0.1785583-0.7285824-0.4268913-1.2129059-0.746994-1.4488983
			C37.9925194,8.3326979,37.5738335,8.2115698,37.0566902,8.2115698"/>
		<path class="st1" d="M53.4609795,29.4970436c-0.8557854,0-1.6295242-0.1313362-2.3170204-0.3981438
			c-0.6875-0.26474-1.2744713-0.630064-1.7567291-1.0917778c-0.4843864-0.4638424-0.8558502-1.0117989-1.1143875-1.6439304
			c-0.2586021-0.6341343-0.3879356-1.3175602-0.3879356-2.054285c0-0.8168297,0.1457443-1.5556831,0.4392281-2.2164993
			c0.2934875-0.6587505,0.6854324-1.2375202,1.1759567-1.736248c0.4884567-0.4965992,1.0507545-0.905014,1.6848907-1.2251816
			c0.6321297-0.3222351,1.2888756-0.5479565,1.9702339-0.6834259c0.5048676-0.0964508,0.9173508-0.1641541,1.2375183-0.2052402
			c0.3181038-0.0389576,0.5971832-0.0717754,0.8373108-0.0923176c0.23806-0.0205441,0.4597092-0.0390186,0.6628838-0.0615673
			c0.2052383-0.0205421,0.4494362-0.0697689,0.7347183-0.1518784c0.4905243-0.1374741,0.9276237-0.4002094,1.3093567-0.7880821
			c0.3735313-0.3817329,0.7347221-0.8106289,1.0815697-1.2888136c0.0143433-0.0184765,0.0205421-0.0410862,0.0205421-0.0594997
			v-4.0122461c0-1.2129049-0.2832146-2.0871668-0.847641-2.6269178c-0.566433-0.5356178-1.4262886-0.8065577-2.583828-0.8065577
			c-0.5992508,0-1.2087746,0.0821085-1.8285675,0.2462635c-0.6197929,0.1621504-1.2026329,0.3899384-1.7464561,0.6834259
			c-0.5438843,0.2914209-1.032341,0.640336-1.461235,1.0425501c-0.4289589,0.402277-0.7593346,0.8332386-0.9912567,1.297081
			c0.3139687-0.4495001,0.7162437-0.8024864,1.206707-1.0630932c0.4905205-0.2586012,1.0200005-0.3878717,1.5925713-0.3878717
			c0.476181,0,0.9256172,0.0923176,1.3483772,0.275012c0.4227562,0.1846972,0.7901459,0.4330282,1.102047,0.7469959
			c0.3140297,0.3140297,0.5623627,0.6813593,0.7470589,1.1041155c0.1847,0.4228201,0.275013,0.8701906,0.275013,1.3483763
			c0,0.4740515-0.090313,0.9255562-0.275013,1.3463087c-0.1846962,0.4227571-0.4330292,0.7900858-0.7470589,1.1041164
			c-0.3119011,0.3139668-0.6792908,0.5622978-1.102047,0.7429256c-0.42276,0.1846981-0.8721962,0.2770767-1.3483772,0.2770767
			c-0.5725708,0-1.075367-0.1026516-1.5125313-0.3058243c-0.4350319-0.2052422-0.7962837-0.4802532-1.0815048-0.8270388
			c-0.2852821-0.3468485-0.5048676-0.7491255-0.6546783-1.2047005c-0.1498146-0.4576426-0.2237167-0.931757-0.2237167-1.4202137
			c0-0.8167667,0.2319221-1.5576878,0.693634-2.2164364c0.4638443-0.6608162,1.0446167-1.223177,1.7465172-1.6849537
			c0.7019043-0.4637794,1.4755783-0.8188334,2.3190918-1.0630302c0.8435097-0.2442598,1.6479988-0.3673916,2.4114037-0.3673916
			c1.5105286,0,2.8547707,0.174427,4.0347939,0.5192089c1.1759529,0.3489151,2.1713448,0.8394384,2.9819717,1.4715071
			c0.8106308,0.6341362,1.4263535,1.3935328,1.8491058,2.2800694c0.4206924,0.8845339,0.6321335,1.8655176,0.6321335,2.9409494
			v10.6636229c0,0.8455772,0.1354065,1.4550991,0.4083557,1.836832c0.2730026,0.3837395,0.6546783,0.5725708,1.145195,0.5725708
			c0.47612,0,0.8332443-0.174427,1.0713043-0.5212746c0.2380524-0.3468494,0.4124832-0.7839489,0.5212708-1.3175621h0.2052383
			c-0.0697708,0.3817329-0.1846924,0.7531967-0.3489151,1.1143875c-0.1621475,0.3611908-0.3878708,0.6834259-0.6731491,0.9686451
			c-0.2872925,0.2873497-0.6444092,0.5151386-1.0733032,0.6834259c-0.4289551,0.1703568-0.9563751,0.2565365-1.5823669,0.2565365
			c-0.8311691,0-1.5925064-0.1087894-2.2882729-0.3263073c-0.693634-0.2175159-1.3072891-0.5172024-1.8388367-0.8988743
			c-0.52948-0.3817348-0.9666405-0.8168297-1.3072891-1.3073521c-0.3407097-0.4904613-0.5582275-1.0138035-0.6526108-1.5740967
			c-0.0821114,0.4248238-0.2421951,0.8722572-0.4802513,1.350441c-0.23806,0.47612-0.5828438,0.9194183-1.03228,1.3257675
			c-0.449501,0.4084148-1.0138664,0.7490616-1.6952248,1.022007C55.2731361,29.3615723,54.4419632,29.4970436,53.4609795,29.4970436
			 M59.0391159,16.1982346c-0.2175789,0.3140297-0.4228172,0.5787697-0.6136551,0.7983532
			c-0.1908951,0.2175789-0.3817329,0.4125481-0.5705643,0.5808353c-0.190834,0.1702938-0.3816719,0.3201065-0.5725708,0.4515057
			c-0.190834,0.1292686-0.3960762,0.2544689-0.6136551,0.3755322c-0.640274,0.3550549-1.1738853,0.8291054-1.6027794,1.4202137
			c-0.4289589,0.5931129-0.6444092,1.3667889-0.6444092,2.3190269v3.3493633c0,0.5048656,0.0184135,0.9501686,0.0512962,1.340107
			c0.0348854,0.3858681,0.1025887,0.714241,0.2052383,0.978981c0.1025925,0.26474,0.2400665,0.4699173,0.4186249,0.6135921
			c0.1764946,0.1416092,0.4145546,0.2134457,0.7141762,0.2134457c0.4638443,0,0.8928032-0.1354694,1.2868118-0.4084148
			c0.3960762-0.2729435,0.7367859-0.6095219,1.022007-1.0117359c0.2873497-0.4002094,0.5110664-0.8291664,0.6752205-1.2868099
			c0.1621513-0.4555759,0.2442589-0.868124,0.2442589-1.2333851V16.1982346z"/>
		<path class="st1" d="M53.4609795,29.4970436c-0.8557854,0-1.6295242-0.1313362-2.3170204-0.3981438
			c-0.6875-0.26474-1.2744713-0.630064-1.7567291-1.0917778c-0.4843864-0.4638424-0.8558502-1.0117989-1.1143875-1.6439304
			c-0.2586021-0.6341343-0.3879356-1.3175602-0.3879356-2.054285c0-0.8168297,0.1457443-1.5556831,0.4392281-2.2164993
			c0.2934875-0.6587505,0.6854324-1.2375202,1.1759567-1.736248c0.4884567-0.4965992,1.0507545-0.905014,1.6848907-1.2251816
			c0.6321297-0.3222351,1.2888756-0.5479565,1.9702339-0.6834259c0.5048676-0.0964508,0.9173508-0.1641541,1.2375183-0.2052402
			c0.3181038-0.0389576,0.5971832-0.0717754,0.8373108-0.0923176c0.23806-0.0205441,0.4597092-0.0390186,0.6628838-0.0615673
			c0.2052383-0.0205421,0.4494362-0.0697689,0.7347183-0.1518784c0.4905243-0.1374741,0.9276237-0.4002094,1.3093567-0.7880821
			c0.3735313-0.3817329,0.7347221-0.8106289,1.0815697-1.2888136c0.0143433-0.0184765,0.0205421-0.0410862,0.0205421-0.0594997
			v-4.0122461c0-1.2129049-0.2832146-2.0871668-0.847641-2.6269178c-0.566433-0.5356178-1.4262886-0.8065577-2.583828-0.8065577
			c-0.5992508,0-1.2087746,0.0821085-1.8285675,0.2462635c-0.6197929,0.1621504-1.2026329,0.3899384-1.7464561,0.6834259
			c-0.5438843,0.2914209-1.032341,0.640336-1.461235,1.0425501c-0.4289589,0.402277-0.7593346,0.8332386-0.9912567,1.297081
			c0.3139687-0.4495001,0.7162437-0.8024864,1.206707-1.0630932c0.4905205-0.2586012,1.0200005-0.3878717,1.5925713-0.3878717
			c0.476181,0,0.9256172,0.0923176,1.3483772,0.275012c0.4227562,0.1846972,0.7901459,0.4330282,1.102047,0.7469959
			c0.3140297,0.3140297,0.5623627,0.6813593,0.7470589,1.1041155c0.1847,0.4228201,0.275013,0.8701906,0.275013,1.3483763
			c0,0.4740515-0.090313,0.9255562-0.275013,1.3463087c-0.1846962,0.4227571-0.4330292,0.7900858-0.7470589,1.1041164
			c-0.3119011,0.3139668-0.6792908,0.5622978-1.102047,0.7429256c-0.42276,0.1846981-0.8721962,0.2770767-1.3483772,0.2770767
			c-0.5725708,0-1.075367-0.1026516-1.5125313-0.3058243c-0.4350319-0.2052422-0.7962837-0.4802532-1.0815048-0.8270388
			c-0.2852821-0.3468485-0.5048676-0.7491255-0.6546783-1.2047005c-0.1498146-0.4576426-0.2237167-0.931757-0.2237167-1.4202137
			c0-0.8167667,0.2319221-1.5576878,0.693634-2.2164364c0.4638443-0.6608162,1.0446167-1.223177,1.7465172-1.6849537
			c0.7019043-0.4637794,1.4755783-0.8188334,2.3190918-1.0630302c0.8435097-0.2442598,1.6479988-0.3673916,2.4114037-0.3673916
			c1.5105286,0,2.8547707,0.174427,4.0347939,0.5192089c1.1759529,0.3489151,2.1713448,0.8394384,2.9819717,1.4715071
			c0.8106308,0.6341362,1.4263535,1.3935328,1.8491058,2.2800694c0.4206924,0.8845339,0.6321335,1.8655176,0.6321335,2.9409494
			v10.6636229c0,0.8455772,0.1354065,1.4550991,0.4083557,1.836832c0.2730026,0.3837395,0.6546783,0.5725708,1.145195,0.5725708
			c0.47612,0,0.8332443-0.174427,1.0713043-0.5212746c0.2380524-0.3468494,0.4124832-0.7839489,0.5212708-1.3175621h0.2052383
			c-0.0697708,0.3817329-0.1846924,0.7531967-0.3489151,1.1143875c-0.1621475,0.3611908-0.3878708,0.6834259-0.6731491,0.9686451
			c-0.2872925,0.2873497-0.6444092,0.5151386-1.0733032,0.6834259c-0.4289551,0.1703568-0.9563751,0.2565365-1.5823669,0.2565365
			c-0.8311691,0-1.5925064-0.1087894-2.2882729-0.3263073c-0.693634-0.2175159-1.3072891-0.5172024-1.8388367-0.8988743
			c-0.52948-0.3817348-0.9666405-0.8168297-1.3072891-1.3073521c-0.3407097-0.4904613-0.5582275-1.0138035-0.6526108-1.5740967
			c-0.0821114,0.4248238-0.2421951,0.8722572-0.4802513,1.350441c-0.23806,0.47612-0.5828438,0.9194183-1.03228,1.3257675
			c-0.449501,0.4084148-1.0138664,0.7490616-1.6952248,1.022007C55.2731361,29.3615723,54.4419632,29.4970436,53.4609795,29.4970436
			 M59.0391159,16.1982346c-0.2175789,0.3140297-0.4228172,0.5787697-0.6136551,0.7983532
			c-0.1908951,0.2175789-0.3817329,0.4125481-0.5705643,0.5808353c-0.190834,0.1702938-0.3816719,0.3201065-0.5725708,0.4515057
			c-0.190834,0.1292686-0.3960762,0.2544689-0.6136551,0.3755322c-0.640274,0.3550549-1.1738853,0.8291054-1.6027794,1.4202137
			c-0.4289589,0.5931129-0.6444092,1.3667889-0.6444092,2.3190269v3.3493633c0,0.5048656,0.0184135,0.9501686,0.0512962,1.340107
			c0.0348854,0.3858681,0.1025887,0.714241,0.2052383,0.978981c0.1025925,0.26474,0.2400665,0.4699173,0.4186249,0.6135921
			c0.1764946,0.1416092,0.4145546,0.2134457,0.7141762,0.2134457c0.4638443,0,0.8928032-0.1354694,1.2868118-0.4084148
			c0.3960762-0.2729435,0.7367859-0.6095219,1.022007-1.0117359c0.2873497-0.4002094,0.5110664-0.8291664,0.6752205-1.2868099
			c0.1621513-0.4555759,0.2442589-0.868124,0.2442589-1.2333851V16.1982346z"/>
		<path class="st1" d="M66.2705154,8.5382519h11.6856308v0.2052402h-1.7813416
			c-0.0554276,0-0.0985184,0.0430899-0.0985184,0.0964518v15.755372c0,0.7614002,0.02668,1.4058075,0.0821152,1.9312172
			c0.05336,0.5254078,0.1456757,0.9522362,0.2750092,1.2868099c0.1292648,0.3345108,0.3036957,0.5746365,0.5212708,0.7244492
			c0.2175217,0.1498127,0.496666,0.2236538,0.8373108,0.2236538c0.3529892,0,0.6977692-0.1107941,1.0302734-0.3365784
			c0.3345108-0.2236538,0.6444092-0.5294781,0.931694-0.9194183c0.2852859-0.3878708,0.5376892-0.8373089,0.7552643-1.3483124
			c0.2155151-0.5048656,0.3981476-1.0507545,0.5479584-1.6295242c0.0020676-0.0102711,0.0040665-0.0184765,0.0040665-0.0287476
			V8.8399439c0-0.0533619-0.0450897-0.0964518-0.0984497-0.0964518h-1.7814102V8.5382519h8.3179245
			c0.0553589,0,0.0985107,0.0431528,0.0985107,0.0985184v20.0282249c0,0.05336,0.0430908,0.0964508,0.0984573,0.0964508h3.1687393
			v0.2052402h-9.7072525c-0.05336,0-0.0965195-0.0430889-0.0965195-0.0985184V25.208971
			c-0.2195816,0.7614021-0.4904556,1.4140129-0.8188324,1.9496937c-0.3263016,0.5376835-0.6977692,0.9809837-1.1123199,1.3277702
			c-0.4166183,0.3489151-0.8742599,0.603384-1.3791275,0.767601c-0.5048676,0.1620884-1.0343475,0.2441978-1.5925674,0.2441978
			c-1.1718826,0-2.1734161-0.1990414-3.0045853-0.5931129c-0.8311691-0.3960762-1.514534-0.931757-2.0522842-1.6131153
			c-0.5376816-0.6813602-0.9337616-1.4775829-1.1841583-2.3887978c-0.2523956-0.9153461-0.377594-1.8860588-0.377594-2.922472
			V8.8399439c0-0.0533619-0.0451584-0.0964518-0.0985184-0.0964518h-3.1707458V8.5382519z"/>
		<path class="st1" d="M66.2705154,8.5382519h11.6856308v0.2052402h-1.7813416
			c-0.0554276,0-0.0985184,0.0430899-0.0985184,0.0964518v15.755372c0,0.7614002,0.02668,1.4058075,0.0821152,1.9312172
			c0.05336,0.5254078,0.1456757,0.9522362,0.2750092,1.2868099c0.1292648,0.3345108,0.3036957,0.5746365,0.5212708,0.7244492
			c0.2175217,0.1498127,0.496666,0.2236538,0.8373108,0.2236538c0.3529892,0,0.6977692-0.1107941,1.0302734-0.3365784
			c0.3345108-0.2236538,0.6444092-0.5294781,0.931694-0.9194183c0.2852859-0.3878708,0.5376892-0.8373089,0.7552643-1.3483124
			c0.2155151-0.5048656,0.3981476-1.0507545,0.5479584-1.6295242c0.0020676-0.0102711,0.0040665-0.0184765,0.0040665-0.0287476
			V8.8399439c0-0.0533619-0.0450897-0.0964518-0.0984497-0.0964518h-1.7814102V8.5382519h8.3179245
			c0.0553589,0,0.0985107,0.0431528,0.0985107,0.0985184v20.0282249c0,0.05336,0.0430908,0.0964508,0.0984573,0.0964508h3.1687393
			v0.2052402h-9.7072525c-0.05336,0-0.0965195-0.0430889-0.0965195-0.0985184V25.208971
			c-0.2195816,0.7614021-0.4904556,1.4140129-0.8188324,1.9496937c-0.3263016,0.5376835-0.6977692,0.9809837-1.1123199,1.3277702
			c-0.4166183,0.3489151-0.8742599,0.603384-1.3791275,0.767601c-0.5048676,0.1620884-1.0343475,0.2441978-1.5925674,0.2441978
			c-1.1718826,0-2.1734161-0.1990414-3.0045853-0.5931129c-0.8311691-0.3960762-1.514534-0.931757-2.0522842-1.6131153
			c-0.5376816-0.6813602-0.9337616-1.4775829-1.1841583-2.3887978c-0.2523956-0.9153461-0.377594-1.8860588-0.377594-2.922472
			V8.8399439c0-0.0533619-0.0451584-0.0964518-0.0985184-0.0964518h-3.1707458V8.5382519z"/>
		<path class="st1" d="M98.2747955,8.7426786c-0.0554352,0-0.0985184,0.0431519-0.0985184,0.0985174V26.063942
			c0,0.5746365,0.1149216,1.0508175,0.3467865,1.4324894c0.2319183,0.3817348,0.5931091,0.5705662,1.0836334,0.5705662
			c0.2996216,0,0.5418167-0.084177,0.7244492-0.2544689c0.1847-0.1703548,0.3283691-0.3899384,0.4289551-0.6628838
			c0.1025925-0.2729435,0.1702957-0.5767021,0.2051773-0.9112129c0.0328827-0.3325062,0.0513611-0.6628838,0.0513611-0.9891891
			v-4.4124565h0.2236557v4.6566544c0,0.5992489-0.0636368,1.1451378-0.1929092,1.6356621
			c-0.1292648,0.4884567-0.34478,0.9070797-0.6444016,1.2539291c-0.2996292,0.3489151-0.6937027,0.6218586-1.1841583,0.8188953
			c-0.4905243,0.1949692-1.0959167,0.2954922-1.8183594,0.2954922c-0.9809799,0-1.832634-0.1518803-2.5530167-0.4576435
			c-0.7223816-0.3078289-1.3216934-0.7449913-1.7978134-1.3093567c-0.4781799-0.5643654-0.8311691-1.2436562-1.0630875-2.0420094
			c-0.2318649-0.7983532-0.3467865-1.6787529-0.3467865-2.6453953V8.8411961c0-0.0553656-0.0431519-0.0985174-0.0985184-0.0985174
			h-3.1297836V8.5375004h1.0630951c1.1985626,0,2.3150177-0.1846981,3.3493652-0.5602942
			c1.0364075-0.375596,1.9332199-0.9255562,2.6966858-1.6562057c0.7634659-0.7265158,1.3627167-1.6192532,1.7978134-2.6740792
			C97.7534561,2.5920331,97.9730988,1.3749938,97.9730988,0h0.2031784v8.4410486
			c0,0.0533619,0.0430832,0.0964518,0.0985184,0.0964518h3.9464798v0.2051783H98.2747955z"/>
		<path class="st1" d="M98.2747955,8.7426786c-0.0554352,0-0.0985184,0.0431519-0.0985184,0.0985174V26.063942
			c0,0.5746365,0.1149216,1.0508175,0.3467865,1.4324894c0.2319183,0.3817348,0.5931091,0.5705662,1.0836334,0.5705662
			c0.2996216,0,0.5418167-0.084177,0.7244492-0.2544689c0.1847-0.1703548,0.3283691-0.3899384,0.4289551-0.6628838
			c0.1025925-0.2729435,0.1702957-0.5767021,0.2051773-0.9112129c0.0328827-0.3325062,0.0513611-0.6628838,0.0513611-0.9891891
			v-4.4124565h0.2236557v4.6566544c0,0.5992489-0.0636368,1.1451378-0.1929092,1.6356621
			c-0.1292648,0.4884567-0.34478,0.9070797-0.6444016,1.2539291c-0.2996292,0.3489151-0.6937027,0.6218586-1.1841583,0.8188953
			c-0.4905243,0.1949692-1.0959167,0.2954922-1.8183594,0.2954922c-0.9809799,0-1.832634-0.1518803-2.5530167-0.4576435
			c-0.7223816-0.3078289-1.3216934-0.7449913-1.7978134-1.3093567c-0.4781799-0.5643654-0.8311691-1.2436562-1.0630875-2.0420094
			c-0.2318649-0.7983532-0.3467865-1.6787529-0.3467865-2.6453953V8.8411961c0-0.0553656-0.0431519-0.0985174-0.0985184-0.0985174
			h-3.1297836V8.5375004h1.0630951c1.1985626,0,2.3150177-0.1846981,3.3493652-0.5602942
			c1.0364075-0.375596,1.9332199-0.9255562,2.6966858-1.6562057c0.7634659-0.7265158,1.3627167-1.6192532,1.7978134-2.6740792
			C97.7534561,2.5920331,97.9730988,1.3749938,97.9730988,0h0.2031784v8.4410486
			c0,0.0533619,0.0430832,0.0964518,0.0985184,0.0964518h3.9464798v0.2051783H98.2747955z"/>
		<path class="st1" d="M105.4483871,38.9756927c-0.925621,0-1.6849594-0.1580162-2.2780685-0.4781227
			c-0.5910492-0.3222313-1.0610275-0.7162437-1.4099426-1.1862221c-0.3467865-0.4699821-0.5889816-0.968708-0.7244492-1.5002556
			c-0.1354065-0.5315475-0.2051773-1.0158691-0.2051773-1.4509659c0-0.4904594,0.0923157-0.9501686,0.2770157-1.3791275
			c0.1826935-0.428894,0.4392319-0.8003578,0.7655334-1.1143875c0.3263092-0.3119621,0.7059708-0.5602932,1.1348724-0.7449913
			c0.4289551-0.1846981,0.8886642-0.2750111,1.377121-0.2750111c0.4781876,0,0.931694,0.090313,1.3606491,0.2750111
			c0.428894,0.1846981,0.8024216,0.4330292,1.1225967,0.7449913c0.3201675,0.3140297,0.5725632,0.6854935,0.7552567,1.1143875
			c0.1847,0.4289589,0.2770157,0.8886681,0.2770157,1.3791275c0,0.4884567-0.0923157,0.9502335-0.2770157,1.3791275
			c-0.1826935,0.4289589-0.4350891,0.804493-0.7552567,1.1349297c-0.3201752,0.3263054-0.6937027,0.5807762-1.1225967,0.7655373
			c-0.4289551,0.1826286-0.8824615,0.2729416-1.3606491,0.2729416c-0.5582275,0-1.0897751-0.1313362-1.5925751-0.39814
			c-0.5028-0.26474-0.925621-0.6013184-1.2662659-1.0097351c0.1354675,0.2729454,0.3098984,0.5458908,0.5212784,0.8167686
			c0.2113724,0.2730064,0.4720459,0.5172043,0.7860107,0.7367859c0.3140335,0.2155113,0.6854935,0.3899384,1.1143875,0.5212746
			c0.4289551,0.1272659,0.9276276,0.1929054,1.5002594,0.1929054c0.7634048,0,1.4262848-0.1231346,1.9927139-0.3673286
			c0.5643692-0.2441978,1.0651627-0.5931129,1.5002594-1.0425529c0.4370956-0.4494362,0.8167648-0.995388,1.1451416-1.6335945
			c0.3263016-0.6424026,0.6321259-1.3565788,0.9194183-2.1446609l1.3339691-3.7228317
			c0.0082626-0.0226097,0.0082626-0.0492897-0.0020065-0.0718365l-8.9068985-20.9866638
			c-0.0144043-0.0368891-0.0513535-0.0594988-0.0903091-0.0594988h-5.4283295V8.5383148h15.3387527v0.2052402h-2.4237442
			c-0.0717697,0-0.1189957,0.0718374-0.0923157,0.1354704l4.7674484,11.2936888
			c0.0348816,0.0821075,0.1539459,0.0779743,0.1826324-0.0061378l3.9362717-11.2937517
			c0.0226135-0.0615654-0.0246124-0.1292696-0.0923157-0.1292696h-2.9676285V8.5383148h6.7007294v0.2052402h-3.281601
			c-0.0410843,0-0.0779724,0.0246143-0.0923767,0.0656996l-8.6380234,24.7751312
			c-0.2852783,0.8435097-0.6054535,1.5946388-0.9605026,2.2575226c-0.3529892,0.6587486-0.7593384,1.223114-1.2149124,1.6951599
			c-0.4577026,0.4679146-0.981041,0.8250351-1.5720901,1.0712967
			C106.9095612,38.852562,106.2241287,38.9756927,105.4483871,38.9756927"/>
		<path class="st1" d="M105.4483871,38.9756927c-0.925621,0-1.6849594-0.1580162-2.2780685-0.4781227
			c-0.5910492-0.3222313-1.0610275-0.7162437-1.4099426-1.1862221c-0.3467865-0.4699821-0.5889816-0.968708-0.7244492-1.5002556
			c-0.1354065-0.5315475-0.2051773-1.0158691-0.2051773-1.4509659c0-0.4904594,0.0923157-0.9501686,0.2770157-1.3791275
			c0.1826935-0.428894,0.4392319-0.8003578,0.7655334-1.1143875c0.3263092-0.3119621,0.7059708-0.5602932,1.1348724-0.7449913
			c0.4289551-0.1846981,0.8886642-0.2750111,1.377121-0.2750111c0.4781876,0,0.931694,0.090313,1.3606491,0.2750111
			c0.428894,0.1846981,0.8024216,0.4330292,1.1225967,0.7449913c0.3201675,0.3140297,0.5725632,0.6854935,0.7552567,1.1143875
			c0.1847,0.4289589,0.2770157,0.8886681,0.2770157,1.3791275c0,0.4884567-0.0923157,0.9502335-0.2770157,1.3791275
			c-0.1826935,0.4289589-0.4350891,0.804493-0.7552567,1.1349297c-0.3201752,0.3263054-0.6937027,0.5807762-1.1225967,0.7655373
			c-0.4289551,0.1826286-0.8824615,0.2729416-1.3606491,0.2729416c-0.5582275,0-1.0897751-0.1313362-1.5925751-0.39814
			c-0.5028-0.26474-0.925621-0.6013184-1.2662659-1.0097351c0.1354675,0.2729454,0.3098984,0.5458908,0.5212784,0.8167686
			c0.2113724,0.2730064,0.4720459,0.5172043,0.7860107,0.7367859c0.3140335,0.2155113,0.6854935,0.3899384,1.1143875,0.5212746
			c0.4289551,0.1272659,0.9276276,0.1929054,1.5002594,0.1929054c0.7634048,0,1.4262848-0.1231346,1.9927139-0.3673286
			c0.5643692-0.2441978,1.0651627-0.5931129,1.5002594-1.0425529c0.4370956-0.4494362,0.8167648-0.995388,1.1451416-1.6335945
			c0.3263016-0.6424026,0.6321259-1.3565788,0.9194183-2.1446609l1.3339691-3.7228317
			c0.0082626-0.0226097,0.0082626-0.0492897-0.0020065-0.0718365l-8.9068985-20.9866638
			c-0.0144043-0.0368891-0.0513535-0.0594988-0.0903091-0.0594988h-5.4283295V8.5383148h15.3387527v0.2052402h-2.4237442
			c-0.0717697,0-0.1189957,0.0718374-0.0923157,0.1354704l4.7674484,11.2936888
			c0.0348816,0.0821075,0.1539459,0.0779743,0.1826324-0.0061378l3.9362717-11.2937517
			c0.0226135-0.0615654-0.0246124-0.1292696-0.0923157-0.1292696h-2.9676285V8.5383148h6.7007294v0.2052402h-3.281601
			c-0.0410843,0-0.0779724,0.0246143-0.0923767,0.0656996l-8.6380234,24.7751312
			c-0.2852783,0.8435097-0.6054535,1.5946388-0.9605026,2.2575226c-0.3529892,0.6587486-0.7593384,1.223114-1.2149124,1.6951599
			c-0.4577026,0.4679146-0.981041,0.8250351-1.5720901,1.0712967
			C106.9095612,38.852562,106.2241287,38.9756927,105.4483871,38.9756927"/>
		<path class="st1" d="M152.3731689,28.9668751h-14.0540771v-0.2051792h3.4971008
			c0.0533752,0,0.098526-0.0430889,0.098526-0.0964508V2.3795898c0-0.1149273-0.16008-0.1374743-0.1929016-0.0307517
			l-8.1004028,26.7514381c-0.0266876,0.0903149-0.151886,0.0944481-0.1867676,0.0082054L123.637085,3.6376522
			c-0.0390244-0.100585-0.190834-0.0718374-0.190834,0.036952v24.9906406c0,0.0533619,0.0450897,0.0964508,0.0984497,0.0964508
			h3.3760452v0.2051792h-7.3143234v-0.2051792h3.4970474c0.05336,0,0.0985184-0.0430889,0.0985184-0.0964508V0.670023
			c0-0.0533614-0.0451584-0.0985181-0.0985184-0.0985181h-3.579155V0.3663268h10.3517227
			c0.0410156,0,0.0759125,0.0266807,0.0902557,0.0656369l6.6761169,17.2802429
			c0.0348816,0.0861797,0.1580048,0.0821075,0.1867523-0.0082054l5.2271576-17.2658367
			c0.0122833-0.0431525,0.0513-0.0718374,0.0943909-0.0718374h10.2224579v0.2051781h-3.4971161
			c-0.05336,0-0.0985107,0.0451567-0.0985107,0.0985181v27.9952221c0,0.0533619,0.0451508,0.0964508,0.0985107,0.0964508h3.4971161
			V28.9668751z"/>
		<path class="st1" d="M152.3731689,28.9668751h-14.0540771v-0.2051792h3.4971008
			c0.0533752,0,0.098526-0.0430889,0.098526-0.0964508V2.3795898c0-0.1149273-0.16008-0.1374743-0.1929016-0.0307517
			l-8.1004028,26.7514381c-0.0266876,0.0903149-0.151886,0.0944481-0.1867676,0.0082054L123.637085,3.6376522
			c-0.0390244-0.100585-0.190834-0.0718374-0.190834,0.036952v24.9906406c0,0.0533619,0.0450897,0.0964508,0.0984497,0.0964508
			h3.3760452v0.2051792h-7.3143234v-0.2051792h3.4970474c0.05336,0,0.0985184-0.0430889,0.0985184-0.0964508V0.670023
			c0-0.0533614-0.0451584-0.0985181-0.0985184-0.0985181h-3.579155V0.3663268h10.3517227
			c0.0410156,0,0.0759125,0.0266807,0.0902557,0.0656369l6.6761169,17.2802429
			c0.0348816,0.0861797,0.1580048,0.0821075,0.1867523-0.0082054l5.2271576-17.2658367
			c0.0122833-0.0431525,0.0513-0.0718374,0.0943909-0.0718374h10.2224579v0.2051781h-3.4971161
			c-0.05336,0-0.0985107,0.0451567-0.0985107,0.0985181v27.9952221c0,0.0533619,0.0451508,0.0964508,0.0985107,0.0964508h3.4971161
			V28.9668751z"/>
		<path class="st1" d="M157.5405731,29.4970436c-0.8557892,0-1.6295319-0.1313362-2.3170319-0.3981438
			c-0.6874847-0.26474-1.2744598-0.630064-1.7567139-1.0917778c-0.4843903-0.4638424-0.8558502-1.0117989-1.1143951-1.6439304
			c-0.258606-0.6341343-0.3879395-1.3175602-0.3879395-2.054285c0-0.8168297,0.145752-1.5556831,0.4392395-2.2164993
			c0.2934875-0.6587505,0.6854248-1.2375202,1.1738892-1.736248c0.490509-0.4965992,1.0528107-0.905014,1.6869507-1.2251816
			c0.6321259-0.3222351,1.2888794-0.5479565,1.9702301-0.6834259c0.5028076-0.0964508,0.9152832-0.1641541,1.2375183-0.2052402
			c0.3181-0.0389576,0.5971832-0.0717754,0.8373108-0.0923176c0.2380676-0.0205441,0.4576416-0.0390186,0.6628876-0.0615673
			c0.205246-0.0205421,0.4494324-0.0697689,0.734726-0.1518784c0.4905243-0.1374741,0.9276123-0.4002094,1.3072815-0.7880821
			c0.3755951-0.3817329,0.7367859-0.8106289,1.0836334-1.2888136c0.0143433-0.0184765,0.0205536-0.0410862,0.0205536-0.0594997
			v-4.0122461c0-1.2129049-0.2832184-2.0871668-0.8476562-2.6269178c-0.5664215-0.5356178-1.4283447-0.8065577-2.5838165-0.8065577
			c-0.6013184,0-1.2087708,0.0821085-1.8285675,0.2462635c-0.6197968,0.1621504-1.2026367,0.3899384-1.74646,0.6834259
			c-0.5459442,0.2914209-1.0323334,0.640336-1.4612274,1.0425501c-0.4289703,0.402277-0.7593384,0.8332386-0.9912567,1.297081
			c0.3139648-0.4495001,0.7162323-0.8024864,1.2066956-1.0630932c0.4884644-0.2586012,1.0200043-0.3878717,1.5925751-0.3878717
			c0.476181,0,0.9256134,0.0923176,1.3483734,0.275012c0.4207001,0.1846972,0.7901459,0.4330282,1.1020508,0.7469959
			c0.3140259,0.3140297,0.5623627,0.6813593,0.7470551,1.1041155c0.1826324,0.4228201,0.2750244,0.8701906,0.2750244,1.3483763
			c0,0.4740515-0.092392,0.9255562-0.2750244,1.3463087c-0.1846924,0.4227571-0.4330292,0.7900858-0.7470551,1.1041164
			c-0.3119049,0.3139668-0.6813507,0.5622978-1.1020508,0.7429256c-0.42276,0.1846981-0.8721924,0.2770767-1.3483734,0.2770767
			c-0.5725708,0-1.0753632-0.1026516-1.5125275-0.3058243c-0.4350281-0.2052422-0.7962952-0.4802532-1.0815125-0.8270388
			c-0.2873383-0.3468485-0.5048676-0.7491255-0.6546783-1.2047005c-0.1498108-0.4576426-0.2237091-0.931757-0.2237091-1.4202137
			c0-0.8167667,0.2319183-1.5576878,0.693634-2.2164364c0.4638367-0.6608162,1.0446167-1.223177,1.746521-1.6849537
			c0.701889-0.4637794,1.4735107-0.8188334,2.3190765-1.0630302c0.8435211-0.2442598,1.6480103-0.3673916,2.4114075-0.3673916
			c1.5105286,0,2.8547668,0.174427,4.0327301,0.5192089c1.1780243,0.3489151,2.1734161,0.8394384,2.9840393,1.4715071
			c0.8086243,0.6341362,1.4263458,1.3935328,1.8491058,2.2800694c0.4207001,0.8845339,0.6321411,1.8655176,0.6321411,2.9409494
			v10.6636229c0,0.8455772,0.1354065,1.4550991,0.4083405,1.836832c0.2730103,0.3837395,0.6546783,0.5725708,1.1431427,0.5725708
			c0.4781799,0,0.8352966-0.174427,1.0733643-0.5212746c0.2380524-0.3468494,0.4124756-0.7839489,0.5212708-1.3175621h0.2031708
			c-0.0677032,0.3817329-0.1826324,0.7531967-0.3468475,1.1143875c-0.1621399,0.3611908-0.3878632,0.6834259-0.6731567,0.9686451
			c-0.2872772,0.2873497-0.6443939,0.5151386-1.0733032,0.6834259c-0.4289551,0.1703568-0.9563599,0.2565365-1.5823517,0.2565365
			c-0.8311768,0-1.5945892-0.1087894-2.2882843-0.3263073c-0.693634-0.2175159-1.3072815-0.5172024-1.8388367-0.8988743
			c-0.5315399-0.3817348-0.966629-0.8168297-1.3072815-1.3073521c-0.3407135-0.4904613-0.5582275-1.0138035-0.6526184-1.5740967
			c-0.0821075,0.4248238-0.2421875,0.8722572-0.4802551,1.350441c-0.2401123,0.47612-0.58284,0.9194183-1.0322723,1.3257675
			c-0.4494934,0.4084148-1.0138702,0.7490616-1.6952209,1.022007
			C159.3527222,29.3615723,158.5215607,29.4970436,157.5405731,29.4970436 M163.1187134,16.1982346
			c-0.2175903,0.3140297-0.422821,0.5787697-0.6136627,0.7983532c-0.1909027,0.2175789-0.3796692,0.4125481-0.5705566,0.5808353
			c-0.1929016,0.1702938-0.3816833,0.3201065-0.5725708,0.4515057c-0.1908417,0.1292686-0.3960876,0.2544689-0.6136627,0.3755322
			c-0.640274,0.3550549-1.1738892,0.8291054-1.6027832,1.4202137c-0.4289551,0.5931129-0.6444092,1.3667889-0.6444092,2.3190269
			v3.3493633c0,0.5048656,0.0184174,0.9501686,0.0513,1.340107c0.0348816,0.3858681,0.1025848,0.714241,0.205246,0.978981
			c0.1025848,0.26474,0.2421265,0.4699173,0.4186249,0.6135921c0.1764832,0.1416092,0.4145508,0.2134457,0.7141724,0.2134457
			c0.4638367,0,0.8927917-0.1354694,1.2868042-0.4084148c0.3960876-0.2729435,0.7367859-0.6095219,1.0220184-1.0117359
			c0.2852783-0.4002094,0.5110626-0.8291664,0.6731415-1.2868099c0.1642303-0.4555759,0.2463379-0.868124,0.2463379-1.2333851
			V16.1982346z"/>
		<path class="st1" d="M157.5405731,29.4970436c-0.8557892,0-1.6295319-0.1313362-2.3170319-0.3981438
			c-0.6874847-0.26474-1.2744598-0.630064-1.7567139-1.0917778c-0.4843903-0.4638424-0.8558502-1.0117989-1.1143951-1.6439304
			c-0.258606-0.6341343-0.3879395-1.3175602-0.3879395-2.054285c0-0.8168297,0.145752-1.5556831,0.4392395-2.2164993
			c0.2934875-0.6587505,0.6854248-1.2375202,1.1738892-1.736248c0.490509-0.4965992,1.0528107-0.905014,1.6869507-1.2251816
			c0.6321259-0.3222351,1.2888794-0.5479565,1.9702301-0.6834259c0.5028076-0.0964508,0.9152832-0.1641541,1.2375183-0.2052402
			c0.3181-0.0389576,0.5971832-0.0717754,0.8373108-0.0923176c0.2380676-0.0205441,0.4576416-0.0390186,0.6628876-0.0615673
			c0.205246-0.0205421,0.4494324-0.0697689,0.734726-0.1518784c0.4905243-0.1374741,0.9276123-0.4002094,1.3072815-0.7880821
			c0.3755951-0.3817329,0.7367859-0.8106289,1.0836334-1.2888136c0.0143433-0.0184765,0.0205536-0.0410862,0.0205536-0.0594997
			v-4.0122461c0-1.2129049-0.2832184-2.0871668-0.8476562-2.6269178c-0.5664215-0.5356178-1.4283447-0.8065577-2.5838165-0.8065577
			c-0.6013184,0-1.2087708,0.0821085-1.8285675,0.2462635c-0.6197968,0.1621504-1.2026367,0.3899384-1.74646,0.6834259
			c-0.5459442,0.2914209-1.0323334,0.640336-1.4612274,1.0425501c-0.4289703,0.402277-0.7593384,0.8332386-0.9912567,1.297081
			c0.3139648-0.4495001,0.7162323-0.8024864,1.2066956-1.0630932c0.4884644-0.2586012,1.0200043-0.3878717,1.5925751-0.3878717
			c0.476181,0,0.9256134,0.0923176,1.3483734,0.275012c0.4207001,0.1846972,0.7901459,0.4330282,1.1020508,0.7469959
			c0.3140259,0.3140297,0.5623627,0.6813593,0.7470551,1.1041155c0.1826324,0.4228201,0.2750244,0.8701906,0.2750244,1.3483763
			c0,0.4740515-0.092392,0.9255562-0.2750244,1.3463087c-0.1846924,0.4227571-0.4330292,0.7900858-0.7470551,1.1041164
			c-0.3119049,0.3139668-0.6813507,0.5622978-1.1020508,0.7429256c-0.42276,0.1846981-0.8721924,0.2770767-1.3483734,0.2770767
			c-0.5725708,0-1.0753632-0.1026516-1.5125275-0.3058243c-0.4350281-0.2052422-0.7962952-0.4802532-1.0815125-0.8270388
			c-0.2873383-0.3468485-0.5048676-0.7491255-0.6546783-1.2047005c-0.1498108-0.4576426-0.2237091-0.931757-0.2237091-1.4202137
			c0-0.8167667,0.2319183-1.5576878,0.693634-2.2164364c0.4638367-0.6608162,1.0446167-1.223177,1.746521-1.6849537
			c0.701889-0.4637794,1.4735107-0.8188334,2.3190765-1.0630302c0.8435211-0.2442598,1.6480103-0.3673916,2.4114075-0.3673916
			c1.5105286,0,2.8547668,0.174427,4.0327301,0.5192089c1.1780243,0.3489151,2.1734161,0.8394384,2.9840393,1.4715071
			c0.8086243,0.6341362,1.4263458,1.3935328,1.8491058,2.2800694c0.4207001,0.8845339,0.6321411,1.8655176,0.6321411,2.9409494
			v10.6636229c0,0.8455772,0.1354065,1.4550991,0.4083405,1.836832c0.2730103,0.3837395,0.6546783,0.5725708,1.1431427,0.5725708
			c0.4781799,0,0.8352966-0.174427,1.0733643-0.5212746c0.2380524-0.3468494,0.4124756-0.7839489,0.5212708-1.3175621h0.2031708
			c-0.0677032,0.3817329-0.1826324,0.7531967-0.3468475,1.1143875c-0.1621399,0.3611908-0.3878632,0.6834259-0.6731567,0.9686451
			c-0.2872772,0.2873497-0.6443939,0.5151386-1.0733032,0.6834259c-0.4289551,0.1703568-0.9563599,0.2565365-1.5823517,0.2565365
			c-0.8311768,0-1.5945892-0.1087894-2.2882843-0.3263073c-0.693634-0.2175159-1.3072815-0.5172024-1.8388367-0.8988743
			c-0.5315399-0.3817348-0.966629-0.8168297-1.3072815-1.3073521c-0.3407135-0.4904613-0.5582275-1.0138035-0.6526184-1.5740967
			c-0.0821075,0.4248238-0.2421875,0.8722572-0.4802551,1.350441c-0.2401123,0.47612-0.58284,0.9194183-1.0322723,1.3257675
			c-0.4494934,0.4084148-1.0138702,0.7490616-1.6952209,1.022007
			C159.3527222,29.3615723,158.5215607,29.4970436,157.5405731,29.4970436 M163.1187134,16.1982346
			c-0.2175903,0.3140297-0.422821,0.5787697-0.6136627,0.7983532c-0.1909027,0.2175789-0.3796692,0.4125481-0.5705566,0.5808353
			c-0.1929016,0.1702938-0.3816833,0.3201065-0.5725708,0.4515057c-0.1908417,0.1292686-0.3960876,0.2544689-0.6136627,0.3755322
			c-0.640274,0.3550549-1.1738892,0.8291054-1.6027832,1.4202137c-0.4289551,0.5931129-0.6444092,1.3667889-0.6444092,2.3190269
			v3.3493633c0,0.5048656,0.0184174,0.9501686,0.0513,1.340107c0.0348816,0.3858681,0.1025848,0.714241,0.205246,0.978981
			c0.1025848,0.26474,0.2421265,0.4699173,0.4186249,0.6135921c0.1764832,0.1416092,0.4145508,0.2134457,0.7141724,0.2134457
			c0.4638367,0,0.8927917-0.1354694,1.2868042-0.4084148c0.3960876-0.2729435,0.7367859-0.6095219,1.0220184-1.0117359
			c0.2852783-0.4002094,0.5110626-0.8291664,0.6731415-1.2868099c0.1642303-0.4555759,0.2463379-0.868124,0.2463379-1.2333851
			V16.1982346z"/>
		<path class="st1" d="M180.8249664,8.7426786c-0.05336,0-0.098526,0.0431519-0.098526,0.0985174V26.063942
			c0,0.5746365,0.1169434,1.0508175,0.3488617,1.4324894c0.2298431,0.3817348,0.5910339,0.5705662,1.0815582,0.5705662
			c0.2996368,0,0.5418243-0.084177,0.7244568-0.2544689c0.1846924-0.1703548,0.3283691-0.3899384,0.4289551-0.6628838
			c0.1025848-0.2729435,0.1702881-0.5767021,0.2051849-0.9112129c0.0328827-0.3325062,0.0513458-0.6628838,0.0513458-0.9891891
			v-4.4124565h0.2236633v4.6566544c0,0.5992489-0.0636292,1.1451378-0.1929016,1.6356621
			c-0.1292725,0.4884567-0.3447876,0.9070797-0.6444092,1.2539291c-0.2996216,0.3489151-0.6936951,0.6218586-1.1841583,0.8188953
			c-0.4905243,0.1949692-1.0959167,0.2954922-1.8183594,0.2954922c-0.9809875,0-1.8306274-0.1518803-2.553009-0.4576435
			c-0.7223816-0.3078289-1.321701-0.7449913-1.797821-1.3093567c-0.4781799-0.5643654-0.8311615-1.2436562-1.0630951-2.0420094
			c-0.2318573-0.7983532-0.3467865-1.6787529-0.3467865-2.6453953V8.8411961c0-0.0553656-0.0451508-0.0985174-0.0985107-0.0985174
			h-3.129776V8.5375004h1.0630951c1.1985626,0,2.3150177-0.1846981,3.34935-0.5602942
			c1.0364227-0.375596,1.9352875-0.9255562,2.696701-1.6562057c0.7634583-0.7265158,1.3627167-1.6192532,1.7978058-2.6740792
			C180.3056946,2.5920331,180.5232697,1.3749938,180.5232697,0h0.2031708v8.4410486
			c0,0.0533619,0.045166,0.0964518,0.098526,0.0964518h3.9464874v0.2051783H180.8249664z"/>
		<path class="st1" d="M180.8249664,8.7426786c-0.05336,0-0.098526,0.0431519-0.098526,0.0985174V26.063942
			c0,0.5746365,0.1169434,1.0508175,0.3488617,1.4324894c0.2298431,0.3817348,0.5910339,0.5705662,1.0815582,0.5705662
			c0.2996368,0,0.5418243-0.084177,0.7244568-0.2544689c0.1846924-0.1703548,0.3283691-0.3899384,0.4289551-0.6628838
			c0.1025848-0.2729435,0.1702881-0.5767021,0.2051849-0.9112129c0.0328827-0.3325062,0.0513458-0.6628838,0.0513458-0.9891891
			v-4.4124565h0.2236633v4.6566544c0,0.5992489-0.0636292,1.1451378-0.1929016,1.6356621
			c-0.1292725,0.4884567-0.3447876,0.9070797-0.6444092,1.2539291c-0.2996216,0.3489151-0.6936951,0.6218586-1.1841583,0.8188953
			c-0.4905243,0.1949692-1.0959167,0.2954922-1.8183594,0.2954922c-0.9809875,0-1.8306274-0.1518803-2.553009-0.4576435
			c-0.7223816-0.3078289-1.321701-0.7449913-1.797821-1.3093567c-0.4781799-0.5643654-0.8311615-1.2436562-1.0630951-2.0420094
			c-0.2318573-0.7983532-0.3467865-1.6787529-0.3467865-2.6453953V8.8411961c0-0.0553656-0.0451508-0.0985174-0.0985107-0.0985174
			h-3.129776V8.5375004h1.0630951c1.1985626,0,2.3150177-0.1846981,3.34935-0.5602942
			c1.0364227-0.375596,1.9352875-0.9255562,2.696701-1.6562057c0.7634583-0.7265158,1.3627167-1.6192532,1.7978058-2.6740792
			C180.3056946,2.5920331,180.5232697,1.3749938,180.5232697,0h0.2031708v8.4410486
			c0,0.0533619,0.045166,0.0964518,0.098526,0.0964518h3.9464874v0.2051783H180.8249664z"/>
		<path class="st1" d="M192.5866241,8.7426786c-0.05336,0-0.0985107,0.0431519-0.0985107,0.0985174V26.063942
			c0,0.5746365,0.1169281,1.0508175,0.3488464,1.4324894c0.2298584,0.3817348,0.5910492,0.5705662,1.0815735,0.5705662
			c0.2996216,0,0.5418091-0.084177,0.7244415-0.2544689c0.1847076-0.1703548,0.3283844-0.3899384,0.4289703-0.6628838
			c0.1025848-0.2729435,0.1702881-0.5767021,0.2051697-0.9112129c0.0328827-0.3325062,0.0513611-0.6628838,0.0513611-0.9891891
			v-4.4124565h0.2236481v4.6566544c0,0.5992489-0.0636292,1.1451378-0.1929016,1.6356621
			c-0.1292725,0.4884567-0.3447723,0.9070797-0.6444092,1.2539291c-0.2996216,0.3489151-0.6936951,0.6218586-1.1841583,0.8188953
			c-0.4905243,0.1949692-1.0959015,0.2954922-1.8183441,0.2954922c-0.9809875,0-1.8306427-0.1518803-2.5530243-0.4576435
			c-0.7223816-0.3078289-1.3216858-0.7449913-1.7978058-1.3093567c-0.4781952-0.5643654-0.8311768-1.2436562-1.0630951-2.0420094
			c-0.2318573-0.7983532-0.3467865-1.6787529-0.3467865-2.6453953V8.8411961c0-0.0553656-0.0431519-0.0985174-0.098526-0.0985174
			h-3.129776V8.5375004h1.0630951c1.1985626,0,2.3150177-0.1846981,3.3493652-0.5602942
			c1.0364075-0.375596,1.9352875-0.9255562,2.6966858-1.6562057c0.7634735-0.7265158,1.3627167-1.6192532,1.797821-2.6740792
			C192.0673523,2.5920331,192.2849426,1.3749938,192.2849426,0h0.2031708v8.4410486
			c0,0.0533619,0.0451508,0.0964518,0.0985107,0.0964518h3.9464874v0.2051783H192.5866241z"/>
		<path class="st1" d="M192.5866241,8.7426786c-0.05336,0-0.0985107,0.0431519-0.0985107,0.0985174V26.063942
			c0,0.5746365,0.1169281,1.0508175,0.3488464,1.4324894c0.2298584,0.3817348,0.5910492,0.5705662,1.0815735,0.5705662
			c0.2996216,0,0.5418091-0.084177,0.7244415-0.2544689c0.1847076-0.1703548,0.3283844-0.3899384,0.4289703-0.6628838
			c0.1025848-0.2729435,0.1702881-0.5767021,0.2051697-0.9112129c0.0328827-0.3325062,0.0513611-0.6628838,0.0513611-0.9891891
			v-4.4124565h0.2236481v4.6566544c0,0.5992489-0.0636292,1.1451378-0.1929016,1.6356621
			c-0.1292725,0.4884567-0.3447723,0.9070797-0.6444092,1.2539291c-0.2996216,0.3489151-0.6936951,0.6218586-1.1841583,0.8188953
			c-0.4905243,0.1949692-1.0959015,0.2954922-1.8183441,0.2954922c-0.9809875,0-1.8306427-0.1518803-2.5530243-0.4576435
			c-0.7223816-0.3078289-1.3216858-0.7449913-1.7978058-1.3093567c-0.4781952-0.5643654-0.8311768-1.2436562-1.0630951-2.0420094
			c-0.2318573-0.7983532-0.3467865-1.6787529-0.3467865-2.6453953V8.8411961c0-0.0553656-0.0431519-0.0985174-0.098526-0.0985174
			h-3.129776V8.5375004h1.0630951c1.1985626,0,2.3150177-0.1846981,3.3493652-0.5602942
			c1.0364075-0.375596,1.9352875-0.9255562,2.6966858-1.6562057c0.7634735-0.7265158,1.3627167-1.6192532,1.797821-2.6740792
			C192.0673523,2.5920331,192.2849426,1.3749938,192.2849426,0h0.2031708v8.4410486
			c0,0.0533619,0.0451508,0.0964518,0.0985107,0.0964518h3.9464874v0.2051783H192.5866241z"/>
		<path class="st1" d="M203.2898407,18.7111015c-0.0533752,0-0.098526,0.0450935-0.098526,0.0984554v0.9235516
			c0,1.4181461,0.0348816,2.6802807,0.1025848,3.790596c0.0677795,1.1081886,0.2483368,2.0522823,0.5418243,2.8280258
			c0.2934875,0.7778111,0.7388458,1.3688564,1.3381042,1.7772713c0.5992432,0.4084148,1.4222107,0.6136551,2.4709015,0.6136551
			c0.8865967,0,1.7136993-0.1539459,2.4833069-0.4597092c0.7696075-0.3058262,1.4612427-0.7573299,2.0727692-1.3483753
			c0.6136475-0.5931129,1.1431274-1.3216953,1.5925751-2.1856861c0.4494934-0.8639908,0.7983398-1.8573132,1.0426025-2.9737663
			h0.2051849c-0.2729492,1.1985626-0.6546783,2.2759991-1.1451416,3.2282352
			c-0.4905243,0.9522991-1.1021118,1.7649956-1.8368378,2.429945c-0.7367249,0.666954-1.600769,1.1779575-2.5960999,1.5330105
			c-0.9933167,0.3550529-2.1302643,0.5315475-3.4108734,0.5315475c-0.8579102,0-1.699295-0.1313381-2.5222626-0.3981438
			c-0.8250275-0.26474-1.600769-0.6362019-2.3293457-1.1143875c-0.7285919-0.4761181-1.3996735-1.0466843-2.011261-1.7136383
			c-0.6136017-0.667017-1.1410675-1.4017372-1.5843658-2.1980228c-0.4432373-0.7962875-0.786026-1.6438675-1.0302124-2.5427437
			c-0.2462769-0.8989372-0.3694-1.8244934-0.3694-2.7767296c0-0.9543037,0.1231232-1.8799229,0.3694-2.7808657
			c0.2441864-0.8968706,0.5869751-1.7444515,1.0302124-2.5427427c0.4432983-0.7962856,0.9707642-1.5269356,1.5843658-2.1959562
			c0.6115875-0.667017,1.2826691-1.2395868,2.011261-1.7137003c0.7285767-0.4781227,1.5022583-0.8495855,2.3190765-1.1143875
			c0.8167725-0.2667446,1.6602783-0.4001474,2.5325317-0.4001474c1.32164,0,2.5570984,0.2872868,3.7084351,0.857852
			c1.1492767,0.5746365,2.1446533,1.3483133,2.9819641,2.3190889c0.8373718,0.9747839,1.4981995,2.1117811,1.9804535,3.4108658
			c0.4720459,1.2703381,0.7142334,2.6105089,0.7244415,4.0163183c0.0020752,0.0554276-0.0450897,0.100584-0.0984497,0.100584
			H203.2898407z M206.0522156,8.2115698c-0.6670074,0-1.1924133,0.1888323-1.5741577,0.5602942
			c-0.3796692,0.3776007-0.6669464,0.9009428-0.8578491,1.5740967c-0.1908264,0.6752214-0.3078308,1.4858503-0.3549957,2.4319496
			c-0.0492859,0.9481659-0.0738983,1.9969158-0.0738983,3.1563978v2.4751024c0,0.0553646,0.0451508,0.0985165,0.098526,0.0985165
			h5.1142883c0.0553589,0,0.0984497-0.0472221,0.0984497-0.100584c0-2.1733475-0.0307465-3.9260035-0.0902405-5.2620411
			c-0.0615692-1.3565807-0.1806335-2.3970642-0.3571167-3.1256466c-0.1785736-0.7285824-0.4268951-1.2129059-0.7470093-1.4488983
			C206.9880524,8.3326979,206.5693665,8.2115698,206.0522156,8.2115698"/>
		<path class="st1" d="M203.2898407,18.7111015c-0.0533752,0-0.098526,0.0450935-0.098526,0.0984554v0.9235516
			c0,1.4181461,0.0348816,2.6802807,0.1025848,3.790596c0.0677795,1.1081886,0.2483368,2.0522823,0.5418243,2.8280258
			c0.2934875,0.7778111,0.7388458,1.3688564,1.3381042,1.7772713c0.5992432,0.4084148,1.4222107,0.6136551,2.4709015,0.6136551
			c0.8865967,0,1.7136993-0.1539459,2.4833069-0.4597092c0.7696075-0.3058262,1.4612427-0.7573299,2.0727692-1.3483753
			c0.6136475-0.5931129,1.1431274-1.3216953,1.5925751-2.1856861c0.4494934-0.8639908,0.7983398-1.8573132,1.0426025-2.9737663
			h0.2051849c-0.2729492,1.1985626-0.6546783,2.2759991-1.1451416,3.2282352
			c-0.4905243,0.9522991-1.1021118,1.7649956-1.8368378,2.429945c-0.7367249,0.666954-1.600769,1.1779575-2.5960999,1.5330105
			c-0.9933167,0.3550529-2.1302643,0.5315475-3.4108734,0.5315475c-0.8579102,0-1.699295-0.1313381-2.5222626-0.3981438
			c-0.8250275-0.26474-1.600769-0.6362019-2.3293457-1.1143875c-0.7285919-0.4761181-1.3996735-1.0466843-2.011261-1.7136383
			c-0.6136017-0.667017-1.1410675-1.4017372-1.5843658-2.1980228c-0.4432373-0.7962875-0.786026-1.6438675-1.0302124-2.5427437
			c-0.2462769-0.8989372-0.3694-1.8244934-0.3694-2.7767296c0-0.9543037,0.1231232-1.8799229,0.3694-2.7808657
			c0.2441864-0.8968706,0.5869751-1.7444515,1.0302124-2.5427427c0.4432983-0.7962856,0.9707642-1.5269356,1.5843658-2.1959562
			c0.6115875-0.667017,1.2826691-1.2395868,2.011261-1.7137003c0.7285767-0.4781227,1.5022583-0.8495855,2.3190765-1.1143875
			c0.8167725-0.2667446,1.6602783-0.4001474,2.5325317-0.4001474c1.32164,0,2.5570984,0.2872868,3.7084351,0.857852
			c1.1492767,0.5746365,2.1446533,1.3483133,2.9819641,2.3190889c0.8373718,0.9747839,1.4981995,2.1117811,1.9804535,3.4108658
			c0.4720459,1.2703381,0.7142334,2.6105089,0.7244415,4.0163183c0.0020752,0.0554276-0.0450897,0.100584-0.0984497,0.100584
			H203.2898407z M206.0522156,8.2115698c-0.6670074,0-1.1924133,0.1888323-1.5741577,0.5602942
			c-0.3796692,0.3776007-0.6669464,0.9009428-0.8578491,1.5740967c-0.1908264,0.6752214-0.3078308,1.4858503-0.3549957,2.4319496
			c-0.0492859,0.9481659-0.0738983,1.9969158-0.0738983,3.1563978v2.4751024c0,0.0553646,0.0451508,0.0985165,0.098526,0.0985165
			h5.1142883c0.0553589,0,0.0984497-0.0472221,0.0984497-0.100584c0-2.1733475-0.0307465-3.9260035-0.0902405-5.2620411
			c-0.0615692-1.3565807-0.1806335-2.3970642-0.3571167-3.1256466c-0.1785736-0.7285824-0.4268951-1.2129059-0.7470093-1.4488983
			C206.9880524,8.3326979,206.5693665,8.2115698,206.0522156,8.2115698"/>
		<path class="st1" d="M229.7897491,9.355895c0.6812897,0,1.2806091,0.174489,1.7977448,0.5213375
			c0.5172119,0.3467865,0.9256287,0.8003578,1.2252502,1.3585854c-0.1231384-0.3838015-0.3037567-0.7490635-0.5418243-1.1041164
			c-0.2380524-0.3529863-0.5335999-0.667017-0.8886566-0.9399614c-0.3529968-0.2708778-0.7593384-0.4884567-1.21492-0.6526117
			c-0.4556274-0.164217-0.9563599-0.2462635-1.5022583-0.2462635c-0.5028534,0-0.9481659,0.0615664-1.3360291,0.1846981
			c-0.3878784,0.1231318-0.7367859,0.2893534-1.0425568,0.4986649c-0.3078918,0.2134457-0.582901,0.4617767-0.8271027,0.7470589
			c-0.2380524,0.2770786-0.4638367,0.5684986-0.6772156,0.8721952c-0.0123444,0.0164719-0.0184784,0.036952-0.0184784,0.0595617
			V28.663805c0,0.0554276,0.0451508,0.0985184,0.0985107,0.0985184h3.1707458v0.2051773h-13.0730286v-0.2051773h3.1687317
			c0.0533752,0,0.098526-0.0430908,0.098526-0.0985184V8.8408203c0-0.0533609-0.0451508-0.0985174-0.098526-0.0985174h-3.1687317
			V8.5391283h9.705246c0.0554352,0,0.098526,0.0430899,0.098526,0.0964518v1.6171865
			c0.2051697-0.2975588,0.4330292-0.5767031,0.6854248-0.8373098c0.2503967-0.2565346,0.5376892-0.4843225,0.8578491-0.6834259
			c0.3181-0.1949692,0.6772919-0.3550529,1.0713043-0.4699802c0.3960724-0.1149273,0.8455811-0.1723595,1.3483734-0.1723595
			c0.3817291,0,0.7880859,0.0533609,1.2149048,0.164155c0.4289703,0.1087894,0.8496552,0.2893534,1.2580719,0.5397511
			c0.4084167,0.254468,0.7757416,0.5869741,1.1021118,1.0015268c0.3283081,0.4145527,0.5787048,0.9214849,0.7572632,1.5207357
			c0.0800476,0.2872868,0.1354675,0.5254087,0.1621552,0.7162437c0.0286865,0.1888323,0.0410156,0.3591251,0.0410156,0.5110044
			c0,0.4905233-0.0738983,0.9625082-0.2237091,1.4181461c-0.1498108,0.4576426-0.3694,0.8599186-0.6546783,1.2067051
			c-0.2852173,0.3468485-0.6464691,0.6239271-1.0835724,0.8271008c-0.4351044,0.2031746-0.9378967,0.3078289-1.5104675,0.3078289
			c-0.4781799,0-0.9256134-0.0923176-1.3483734-0.2770767c-0.42276-0.1846981-0.7901459-0.4330292-1.1020508-0.7449303
			c-0.3140259-0.3140297-0.5623627-0.6813583-0.7470551-1.1021118c-0.1826324-0.4227571-0.2750092-0.8721943-0.2750092-1.3503799
			c0-0.4761181,0.0923767-0.9255562,0.2750092-1.3483753c0.1846924-0.4206905,0.4330292-0.7900858,0.7470551-1.1020498
			c0.3119049-0.3140297,0.6792908-0.5622978,1.1020508-0.7470589C228.8641357,9.4482756,229.3115692,9.355895,229.7897491,9.355895"
			/>
		<path class="st1" d="M229.7897491,9.355895c0.6812897,0,1.2806091,0.174489,1.7977448,0.5213375
			c0.5172119,0.3467865,0.9256287,0.8003578,1.2252502,1.3585854c-0.1231384-0.3838015-0.3037567-0.7490635-0.5418243-1.1041164
			c-0.2380524-0.3529863-0.5335999-0.667017-0.8886566-0.9399614c-0.3529968-0.2708778-0.7593384-0.4884567-1.21492-0.6526117
			c-0.4556274-0.164217-0.9563599-0.2462635-1.5022583-0.2462635c-0.5028534,0-0.9481659,0.0615664-1.3360291,0.1846981
			c-0.3878784,0.1231318-0.7367859,0.2893534-1.0425568,0.4986649c-0.3078918,0.2134457-0.582901,0.4617767-0.8271027,0.7470589
			c-0.2380524,0.2770786-0.4638367,0.5684986-0.6772156,0.8721952c-0.0123444,0.0164719-0.0184784,0.036952-0.0184784,0.0595617
			V28.663805c0,0.0554276,0.0451508,0.0985184,0.0985107,0.0985184h3.1707458v0.2051773h-13.0730286v-0.2051773h3.1687317
			c0.0533752,0,0.098526-0.0430908,0.098526-0.0985184V8.8408203c0-0.0533609-0.0451508-0.0985174-0.098526-0.0985174h-3.1687317
			V8.5391283h9.705246c0.0554352,0,0.098526,0.0430899,0.098526,0.0964518v1.6171865
			c0.2051697-0.2975588,0.4330292-0.5767031,0.6854248-0.8373098c0.2503967-0.2565346,0.5376892-0.4843225,0.8578491-0.6834259
			c0.3181-0.1949692,0.6772919-0.3550529,1.0713043-0.4699802c0.3960724-0.1149273,0.8455811-0.1723595,1.3483734-0.1723595
			c0.3817291,0,0.7880859,0.0533609,1.2149048,0.164155c0.4289703,0.1087894,0.8496552,0.2893534,1.2580719,0.5397511
			c0.4084167,0.254468,0.7757416,0.5869741,1.1021118,1.0015268c0.3283081,0.4145527,0.5787048,0.9214849,0.7572632,1.5207357
			c0.0800476,0.2872868,0.1354675,0.5254087,0.1621552,0.7162437c0.0286865,0.1888323,0.0410156,0.3591251,0.0410156,0.5110044
			c0,0.4905233-0.0738983,0.9625082-0.2237091,1.4181461c-0.1498108,0.4576426-0.3694,0.8599186-0.6546783,1.2067051
			c-0.2852173,0.3468485-0.6464691,0.6239271-1.0835724,0.8271008c-0.4351044,0.2031746-0.9378967,0.3078289-1.5104675,0.3078289
			c-0.4781799,0-0.9256134-0.0923176-1.3483734-0.2770767c-0.42276-0.1846981-0.7901459-0.4330292-1.1020508-0.7449303
			c-0.3140259-0.3140297-0.5623627-0.6813583-0.7470551-1.1021118c-0.1826324-0.4227571-0.2750092-0.8721943-0.2750092-1.3503799
			c0-0.4761181,0.0923767-0.9255562,0.2750092-1.3483753c0.1846924-0.4206905,0.4330292-0.7900858,0.7470551-1.1020498
			c0.3119049-0.3140297,0.6792908-0.5622978,1.1020508-0.7470589C228.8641357,9.4482756,229.3115692,9.355895,229.7897491,9.355895"
			/>
	</g>
</g>
<g id="capitols">
</g>
</svg>
